<svg xmlns="http://www.w3.org/2000/svg" xmlns:xlink="http://www.w3.org/1999/xlink" width="500" zoomAndPan="magnify" viewBox="0 0 375 374.999991" height="500" preserveAspectRatio="xMidYMid meet" version="1.0"><defs><g/><clipPath id="ce71ade330"><path d="M 78.054688 159.554688 L 217.582031 159.554688 L 217.582031 206.335938 L 78.054688 206.335938 Z M 78.054688 159.554688 " clip-rule="nonzero"/></clipPath><clipPath id="4a441b5e52"><path d="M 114 75.835938 L 261 75.835938 L 261 160 L 114 160 Z M 114 75.835938 " clip-rule="nonzero"/></clipPath><clipPath id="8e4d1ef7c4"><path d="M 157.449219 184.511719 L 193.804688 184.511719 L 193.804688 206.335938 L 157.449219 206.335938 Z M 157.449219 184.511719 " clip-rule="nonzero"/></clipPath><clipPath id="f99fca3e14"><path d="M 192.230469 159.554688 L 296.945312 159.554688 L 296.945312 185.886719 L 192.230469 185.886719 Z M 192.230469 159.554688 " clip-rule="nonzero"/></clipPath><clipPath id="6308b89b2e"><path d="M 163.089844 116.859375 L 211.839844 116.859375 L 211.839844 165.609375 L 163.089844 165.609375 Z M 163.089844 116.859375 " clip-rule="nonzero"/></clipPath><clipPath id="e9c066f14b"><path d="M 0.199219 14 L 26 14 L 26 59 L 0.199219 59 Z M 0.199219 14 " clip-rule="nonzero"/></clipPath><clipPath id="a329b19602"><rect x="0" width="196" y="0" height="75"/></clipPath><clipPath id="4128a765ee"><rect x="0" width="121" y="0" height="17"/></clipPath></defs><rect x="-37.5" width="450" fill="#ffffff" y="-37.499999" height="449.999989" fill-opacity="1"/><rect x="-37.5" width="450" fill="#ffffff" y="-37.499999" height="449.999989" fill-opacity="1"/><g clip-path="url(#ce71ade330)"><path fill="#0a5d2b" d="M 78.054688 162.769531 C 102.976562 157.671875 129.191406 159.03125 153.453125 166.671875 C 177.71875 174.316406 199.976562 188.230469 217.476562 206.695312 C 180.035156 181.753906 132.40625 172.382812 87.847656 178.59375 L 78.054688 162.769531 " fill-opacity="1" fill-rule="nonzero"/></g><g clip-path="url(#4a441b5e52)"><path fill="#0a5d2b" d="M 260.296875 154 C 253.523438 152.058594 245.742188 151.074219 236.871094 151.648438 C 250.886719 110.726562 195.332031 103.550781 187.5 75.835938 C 179.667969 103.550781 124.113281 110.726562 138.128906 151.648438 C 129.257812 151.074219 121.476562 152.058594 114.703125 154 C 126.160156 154.496094 137.558594 156.28125 148.605469 159.351562 C 130.148438 129.535156 174.222656 109.164062 187.5 97.113281 C 200.777344 109.164062 244.851562 129.535156 226.394531 159.351562 C 237.441406 156.28125 248.839844 154.496094 260.296875 154 " fill-opacity="1" fill-rule="nonzero"/></g><g clip-path="url(#8e4d1ef7c4)"><path fill="#0a5d2b" d="M 184.042969 184.527344 C 174.394531 190.871094 165.46875 198.3125 157.523438 206.695312 C 168.8125 199.175781 181.027344 193.070312 193.804688 188.382812 C 190.589844 187.003906 187.335938 185.71875 184.042969 184.527344 " fill-opacity="1" fill-rule="nonzero"/></g><g clip-path="url(#f99fca3e14)"><path fill="#0a5d2b" d="M 221.546875 166.675781 C 211.367188 169.878906 201.546875 174.191406 192.277344 179.480469 C 195.414062 181.460938 198.476562 183.554688 201.460938 185.761719 C 228.972656 177.019531 258.6875 174.625 287.152344 178.59375 L 296.945312 162.769531 C 272.023438 157.671875 245.808594 159.03125 221.546875 166.675781 " fill-opacity="1" fill-rule="nonzero"/></g><g clip-path="url(#6308b89b2e)"><path fill="#cba640" d="M 205.265625 131.402344 L 211.839844 134.703125 L 208.003906 140.539062 L 199.070312 140.539062 L 203.667969 132.578125 C 203.792969 132.363281 203.792969 132.097656 203.667969 131.882812 C 203.542969 131.667969 203.3125 131.535156 203.066406 131.535156 L 193.949219 131.535156 L 198.339844 123.796875 L 205.308594 123.390625 L 204.882812 130.738281 C 204.863281 131.015625 205.015625 131.277344 205.265625 131.402344 Z M 190.742188 140.539062 C 190.601562 139.878906 190.269531 139.292969 189.804688 138.839844 L 193.160156 132.925781 L 201.859375 132.925781 L 197.460938 140.539062 Z M 185.5 141.238281 C 185.5 140.15625 186.382812 139.273438 187.464844 139.273438 C 188.542969 139.273438 189.425781 140.15625 189.425781 141.238281 C 189.425781 142.316406 188.542969 143.199219 187.464844 143.199219 C 186.382812 143.199219 185.5 142.316406 185.5 141.238281 Z M 188.621094 138.101562 C 188.257812 137.964844 187.871094 137.882812 187.464844 137.882812 C 187.054688 137.882812 186.667969 137.964844 186.304688 138.101562 L 183.019531 132.3125 L 187.464844 124.613281 L 191.90625 132.3125 Z M 185.125 138.839844 C 184.65625 139.292969 184.324219 139.878906 184.183594 140.539062 L 177.464844 140.539062 L 173.070312 132.925781 L 181.769531 132.925781 Z M 184.183594 141.933594 C 184.324219 142.589844 184.65625 143.175781 185.121094 143.632812 L 181.765625 149.546875 L 173.070312 149.546875 L 177.464844 141.933594 Z M 186.304688 144.371094 C 186.667969 144.507812 187.054688 144.589844 187.464844 144.589844 C 187.871094 144.589844 188.261719 144.507812 188.621094 144.371094 L 191.910156 150.160156 L 187.464844 157.859375 L 183.019531 150.160156 Z M 189.804688 143.632812 C 190.269531 143.179688 190.601562 142.59375 190.742188 141.933594 L 197.460938 141.933594 L 201.859375 149.546875 L 193.160156 149.546875 Z M 180.933594 116.859375 L 187.082031 120.902344 C 187.3125 121.054688 187.613281 121.054688 187.84375 120.902344 L 193.996094 116.859375 L 197.132812 123.105469 L 192.703125 130.90625 L 188.066406 122.875 C 187.816406 122.445312 187.109375 122.445312 186.859375 122.875 L 182.222656 130.90625 L 177.796875 123.105469 Z M 163.089844 134.703125 L 169.664062 131.398438 C 169.910156 131.277344 170.0625 131.015625 170.046875 130.738281 L 169.621094 123.390625 L 176.589844 123.796875 L 180.976562 131.535156 L 171.863281 131.535156 C 171.613281 131.535156 171.382812 131.667969 171.261719 131.882812 C 171.136719 132.097656 171.136719 132.363281 171.261719 132.578125 L 175.859375 140.539062 L 166.925781 140.539062 Z M 169.664062 151.070312 L 163.089844 147.765625 L 166.925781 141.933594 L 175.859375 141.933594 L 171.261719 149.894531 C 171.136719 150.109375 171.136719 150.375 171.261719 150.589844 C 171.382812 150.804688 171.613281 150.9375 171.863281 150.9375 L 180.976562 150.9375 L 176.589844 158.675781 L 169.621094 159.078125 L 170.046875 151.734375 C 170.0625 151.457031 169.910156 151.195312 169.664062 151.070312 Z M 193.996094 165.609375 L 187.84375 161.570312 C 187.730469 161.492188 187.597656 161.457031 187.464844 161.457031 C 187.328125 161.457031 187.195312 161.492188 187.082031 161.570312 L 180.933594 165.609375 L 177.796875 159.371094 L 182.222656 151.566406 L 186.859375 159.597656 C 186.984375 159.8125 187.214844 159.945312 187.464844 159.945312 C 187.710938 159.945312 187.941406 159.8125 188.066406 159.597656 L 192.703125 151.566406 L 197.132812 159.371094 Z M 205.265625 151.070312 C 205.015625 151.195312 204.863281 151.457031 204.882812 151.734375 L 205.308594 159.078125 L 198.339844 158.675781 L 193.949219 150.9375 L 203.066406 150.9375 C 203.3125 150.9375 203.542969 150.804688 203.667969 150.589844 C 203.792969 150.375 203.792969 150.109375 203.667969 149.894531 L 199.070312 141.933594 L 208.003906 141.933594 L 211.839844 147.765625 Z M 205.265625 151.070312 " fill-opacity="1" fill-rule="nonzero"/></g><g transform="matrix(1, 0, 0, 1, 91, 196)"><g clip-path="url(#a329b19602)"><g clip-path="url(#e9c066f14b)"><g fill="#0a5d2b" fill-opacity="1"><g transform="translate(0.532268, 57.934394)"><g><path d="M 24.546875 -3.84375 C 24.546875 -2.332031 24.148438 -1.234375 23.359375 -0.546875 C 22.566406 0.128906 21.359375 0.46875 19.734375 0.46875 C 18.085938 0.46875 16.875 0.128906 16.09375 -0.546875 C 15.3125 -1.234375 14.921875 -2.332031 14.921875 -3.84375 L 14.921875 -39.203125 C 14.921875 -39.628906 14.867188 -39.96875 14.765625 -40.21875 C 14.671875 -40.476562 14.535156 -40.679688 14.359375 -40.828125 C 14.179688 -40.972656 13.96875 -41.070312 13.71875 -41.125 C 13.476562 -41.175781 13.210938 -41.203125 12.921875 -41.203125 C 12.492188 -41.203125 11.957031 -41.128906 11.3125 -40.984375 C 10.675781 -40.847656 10.003906 -40.644531 9.296875 -40.375 C 8.597656 -40.101562 7.890625 -39.765625 7.171875 -39.359375 C 6.460938 -38.960938 5.828125 -38.507812 5.265625 -38 C 4.710938 -37.488281 4.257812 -36.921875 3.90625 -36.296875 C 3.550781 -35.671875 3.375 -34.992188 3.375 -34.265625 C 3.375 -33.640625 3.457031 -33.140625 3.625 -32.765625 C 3.789062 -32.398438 3.976562 -32.125 4.1875 -31.9375 C 4.40625 -31.75 4.628906 -31.628906 4.859375 -31.578125 C 5.085938 -31.535156 5.25 -31.515625 5.34375 -31.515625 C 5.832031 -31.515625 6.234375 -31.597656 6.546875 -31.765625 C 6.859375 -31.929688 7.140625 -32.101562 7.390625 -32.28125 C 7.648438 -32.46875 7.890625 -32.644531 8.109375 -32.8125 C 8.335938 -32.976562 8.597656 -33.0625 8.890625 -33.0625 C 9.128906 -33.0625 9.378906 -33.007812 9.640625 -32.90625 C 9.910156 -32.800781 10.15625 -32.628906 10.375 -32.390625 C 10.601562 -32.148438 10.796875 -31.835938 10.953125 -31.453125 C 11.109375 -31.078125 11.1875 -30.617188 11.1875 -30.078125 C 11.1875 -29.285156 11.035156 -28.601562 10.734375 -28.03125 C 10.429688 -27.46875 10.039062 -26.992188 9.5625 -26.609375 C 9.082031 -26.234375 8.53125 -25.953125 7.90625 -25.765625 C 7.289062 -25.578125 6.679688 -25.484375 6.078125 -25.484375 C 5.140625 -25.484375 4.289062 -25.644531 3.53125 -25.96875 C 2.78125 -26.289062 2.140625 -26.734375 1.609375 -27.296875 C 1.085938 -27.867188 0.6875 -28.535156 0.40625 -29.296875 C 0.132812 -30.066406 0 -30.882812 0 -31.75 C 0 -33.09375 0.242188 -34.328125 0.734375 -35.453125 C 1.222656 -36.578125 1.890625 -37.585938 2.734375 -38.484375 C 3.585938 -39.390625 4.585938 -40.179688 5.734375 -40.859375 C 6.878906 -41.535156 8.117188 -42.097656 9.453125 -42.546875 C 10.785156 -42.992188 12.175781 -43.332031 13.625 -43.5625 C 15.070312 -43.789062 16.519531 -43.90625 17.96875 -43.90625 C 19.570312 -43.90625 20.816406 -43.75 21.703125 -43.4375 C 22.597656 -43.132812 23.253906 -42.769531 23.671875 -42.34375 C 24.097656 -41.914062 24.347656 -41.46875 24.421875 -41 C 24.503906 -40.53125 24.546875 -40.132812 24.546875 -39.8125 Z M 24.546875 -3.84375 "/></g></g></g></g><g fill="#0a5d2b" fill-opacity="1"><g transform="translate(29.512403, 57.934394)"><g><path d="M 18.140625 -43.671875 C 17.597656 -43.671875 17.082031 -43.550781 16.59375 -43.3125 C 16.101562 -43.082031 15.675781 -42.707031 15.3125 -42.1875 C 14.945312 -41.664062 14.65625 -41.003906 14.4375 -40.203125 C 14.226562 -39.398438 14.125 -38.429688 14.125 -37.296875 L 14.125 -30.078125 L 20.5625 -30.078125 L 20.5625 -27.953125 L 14.125 -27.953125 L 14.125 -4.8125 C 14.125 -2.15625 13.773438 0.296875 13.078125 2.546875 C 12.390625 4.804688 11.335938 6.75 9.921875 8.375 C 8.515625 10.007812 6.753906 11.285156 4.640625 12.203125 C 2.523438 13.128906 0.0546875 13.59375 -2.765625 13.59375 C -3.765625 13.59375 -4.722656 13.507812 -5.640625 13.34375 C -6.554688 13.175781 -7.363281 12.945312 -8.0625 12.65625 C -8.769531 12.363281 -9.332031 12.015625 -9.75 11.609375 C -10.175781 11.210938 -10.390625 10.769531 -10.390625 10.28125 C -10.390625 9.925781 -10.34375 9.566406 -10.25 9.203125 C -10.15625 8.835938 -10.007812 8.507812 -9.8125 8.21875 C -9.613281 7.925781 -9.367188 7.6875 -9.078125 7.5 C -8.796875 7.3125 -8.472656 7.21875 -8.109375 7.21875 C -7.890625 7.21875 -7.695312 7.328125 -7.53125 7.546875 C -7.363281 7.765625 -7.191406 8.03125 -7.015625 8.34375 C -6.835938 8.65625 -6.632812 9 -6.40625 9.375 C -6.1875 9.757812 -5.898438 10.109375 -5.546875 10.421875 C -5.191406 10.734375 -4.753906 11 -4.234375 11.21875 C -3.722656 11.4375 -3.09375 11.546875 -2.34375 11.546875 C -1.351562 11.546875 -0.476562 11.34375 0.28125 10.9375 C 1.050781 10.539062 1.707031 9.988281 2.25 9.28125 C 2.800781 8.570312 3.265625 7.738281 3.640625 6.78125 C 4.015625 5.820312 4.304688 4.796875 4.515625 3.703125 C 4.734375 2.609375 4.882812 1.460938 4.96875 0.265625 C 5.0625 -0.929688 5.109375 -2.125 5.109375 -3.3125 L 5.109375 -27.953125 L -0.296875 -27.953125 L -0.296875 -30.078125 L 5.109375 -30.078125 L 5.109375 -33.5 C 5.109375 -35.226562 5.316406 -36.734375 5.734375 -38.015625 C 6.160156 -39.296875 6.71875 -40.382812 7.40625 -41.28125 C 8.101562 -42.1875 8.890625 -42.921875 9.765625 -43.484375 C 10.648438 -44.054688 11.546875 -44.507812 12.453125 -44.84375 C 13.367188 -45.175781 14.257812 -45.398438 15.125 -45.515625 C 15.988281 -45.628906 16.742188 -45.6875 17.390625 -45.6875 C 18.773438 -45.6875 20.003906 -45.582031 21.078125 -45.375 C 22.160156 -45.175781 23.0625 -44.90625 23.78125 -44.5625 C 24.507812 -44.21875 25.054688 -43.820312 25.421875 -43.375 C 25.796875 -42.925781 25.984375 -42.46875 25.984375 -42 C 25.984375 -41.644531 25.929688 -41.285156 25.828125 -40.921875 C 25.722656 -40.554688 25.570312 -40.222656 25.375 -39.921875 C 25.175781 -39.617188 24.9375 -39.375 24.65625 -39.1875 C 24.375 -39 24.054688 -38.90625 23.703125 -38.90625 C 23.484375 -38.90625 23.285156 -39.019531 23.109375 -39.25 C 22.929688 -39.488281 22.742188 -39.785156 22.546875 -40.140625 C 22.359375 -40.492188 22.144531 -40.875 21.90625 -41.28125 C 21.664062 -41.695312 21.375 -42.082031 21.03125 -42.4375 C 20.695312 -42.789062 20.289062 -43.082031 19.8125 -43.3125 C 19.34375 -43.550781 18.785156 -43.671875 18.140625 -43.671875 Z M 18.140625 -43.671875 "/></g></g></g><g fill="#0a5d2b" fill-opacity="1"><g transform="translate(49.067388, 57.934394)"><g><path d="M 12.75 -2.578125 C 12.75 -2.328125 12.703125 -2.023438 12.609375 -1.671875 C 12.523438 -1.316406 12.320312 -0.984375 12 -0.671875 C 11.675781 -0.359375 11.203125 -0.09375 10.578125 0.125 C 9.960938 0.351562 9.140625 0.46875 8.109375 0.46875 C 7.066406 0.46875 6.25 0.34375 5.65625 0.09375 C 5.070312 -0.144531 4.640625 -0.429688 4.359375 -0.765625 C 4.078125 -1.097656 3.898438 -1.4375 3.828125 -1.78125 C 3.765625 -2.132812 3.734375 -2.421875 3.734375 -2.640625 L 3.734375 -40.53125 C 3.734375 -41.09375 3.597656 -41.582031 3.328125 -42 C 3.066406 -42.425781 2.625 -42.640625 2 -42.640625 C 1.664062 -42.640625 1.375 -42.582031 1.125 -42.46875 C 0.882812 -42.363281 0.628906 -42.207031 0.359375 -42 L -0.234375 -42.703125 C 0.210938 -43.066406 0.707031 -43.429688 1.25 -43.796875 C 1.800781 -44.160156 2.40625 -44.476562 3.0625 -44.75 C 3.71875 -45.03125 4.414062 -45.253906 5.15625 -45.421875 C 5.90625 -45.597656 6.691406 -45.6875 7.515625 -45.6875 C 8.785156 -45.6875 9.773438 -45.515625 10.484375 -45.171875 C 11.191406 -44.835938 11.710938 -44.421875 12.046875 -43.921875 C 12.378906 -43.421875 12.578125 -42.890625 12.640625 -42.328125 C 12.710938 -41.773438 12.75 -41.28125 12.75 -40.84375 Z M 12.75 -2.578125 "/></g></g></g><g fill="#0a5d2b" fill-opacity="1"><g transform="translate(65.53938, 57.934394)"><g><path d="M 16.890625 -15.21875 C 16.890625 -15.707031 16.734375 -16.078125 16.421875 -16.328125 C 16.109375 -16.578125 15.707031 -16.703125 15.21875 -16.703125 C 14.53125 -16.703125 13.875 -16.546875 13.25 -16.234375 C 12.632812 -15.921875 12.09375 -15.460938 11.625 -14.859375 C 11.15625 -14.253906 10.785156 -13.503906 10.515625 -12.609375 C 10.242188 -11.722656 10.109375 -10.691406 10.109375 -9.515625 C 10.109375 -8.378906 10.1875 -7.4375 10.34375 -6.6875 C 10.507812 -5.945312 10.734375 -5.359375 11.015625 -4.921875 C 11.304688 -4.484375 11.632812 -4.175781 12 -4 C 12.375 -3.820312 12.769531 -3.734375 13.1875 -3.734375 C 13.695312 -3.734375 14.175781 -3.863281 14.625 -4.125 C 15.070312 -4.382812 15.460938 -4.71875 15.796875 -5.125 C 16.128906 -5.539062 16.394531 -6.003906 16.59375 -6.515625 C 16.789062 -7.023438 16.890625 -7.535156 16.890625 -8.046875 Z M 12.21875 -28.078125 C 11.550781 -28.078125 10.929688 -28 10.359375 -27.84375 C 9.796875 -27.6875 9.304688 -27.488281 8.890625 -27.25 C 8.484375 -27.019531 8.160156 -26.757812 7.921875 -26.46875 C 7.691406 -26.1875 7.578125 -25.921875 7.578125 -25.671875 C 7.578125 -25.367188 7.726562 -25.15625 8.03125 -25.03125 C 8.332031 -24.90625 8.671875 -24.757812 9.046875 -24.59375 C 9.421875 -24.425781 9.757812 -24.191406 10.0625 -23.890625 C 10.363281 -23.585938 10.515625 -23.125 10.515625 -22.5 C 10.515625 -22.082031 10.429688 -21.703125 10.265625 -21.359375 C 10.097656 -21.015625 9.867188 -20.710938 9.578125 -20.453125 C 9.296875 -20.191406 8.960938 -19.984375 8.578125 -19.828125 C 8.203125 -19.679688 7.8125 -19.609375 7.40625 -19.609375 C 6.300781 -19.609375 5.410156 -19.976562 4.734375 -20.71875 C 4.066406 -21.46875 3.734375 -22.460938 3.734375 -23.703125 C 3.734375 -24.890625 4.046875 -25.910156 4.671875 -26.765625 C 5.296875 -27.617188 6.113281 -28.316406 7.125 -28.859375 C 8.132812 -29.410156 9.273438 -29.816406 10.546875 -30.078125 C 11.816406 -30.347656 13.085938 -30.484375 14.359375 -30.484375 C 15.890625 -30.484375 17.347656 -30.316406 18.734375 -29.984375 C 20.117188 -29.648438 21.34375 -29.117188 22.40625 -28.390625 C 23.476562 -27.671875 24.332031 -26.753906 24.96875 -25.640625 C 25.613281 -24.523438 25.9375 -23.171875 25.9375 -21.578125 L 25.9375 -4.984375 C 25.9375 -4.816406 25.941406 -4.625 25.953125 -4.40625 C 25.972656 -4.1875 26.019531 -3.988281 26.09375 -3.8125 C 26.175781 -3.632812 26.296875 -3.488281 26.453125 -3.375 C 26.609375 -3.257812 26.835938 -3.203125 27.140625 -3.203125 C 27.484375 -3.203125 27.804688 -3.332031 28.109375 -3.59375 C 28.421875 -3.863281 28.691406 -4.132812 28.921875 -4.40625 L 29.65625 -3.78125 C 29.363281 -3.375 29.007812 -2.925781 28.59375 -2.4375 C 28.1875 -1.945312 27.6875 -1.484375 27.09375 -1.046875 C 26.507812 -0.617188 25.828125 -0.257812 25.046875 0.03125 C 24.265625 0.320312 23.375 0.46875 22.375 0.46875 C 21.144531 0.46875 20.050781 0.101562 19.09375 -0.625 C 18.132812 -1.363281 17.503906 -2.492188 17.203125 -4.015625 C 16.578125 -3.179688 15.925781 -2.476562 15.25 -1.90625 C 14.582031 -1.34375 13.894531 -0.882812 13.1875 -0.53125 C 12.476562 -0.175781 11.765625 0.078125 11.046875 0.234375 C 10.335938 0.390625 9.617188 0.46875 8.890625 0.46875 C 7.953125 0.46875 7.039062 0.320312 6.15625 0.03125 C 5.28125 -0.257812 4.492188 -0.722656 3.796875 -1.359375 C 3.109375 -1.992188 2.550781 -2.820312 2.125 -3.84375 C 1.707031 -4.863281 1.5 -6.109375 1.5 -7.578125 C 1.5 -9.359375 1.847656 -10.816406 2.546875 -11.953125 C 3.253906 -13.085938 4.179688 -14.039062 5.328125 -14.8125 C 6.472656 -15.582031 7.773438 -16.242188 9.234375 -16.796875 C 10.691406 -17.347656 12.1875 -17.925781 13.71875 -18.53125 C 14.851562 -18.976562 15.675781 -19.644531 16.1875 -20.53125 C 16.707031 -21.425781 16.96875 -22.34375 16.96875 -23.28125 C 16.96875 -24.726562 16.539062 -25.890625 15.6875 -26.765625 C 14.84375 -27.640625 13.6875 -28.078125 12.21875 -28.078125 Z M 12.21875 -28.078125 "/></g></g></g><g fill="#0a5d2b" fill-opacity="1"><g transform="translate(95.488457, 57.934394)"><g><path d="M 28.75 -2.578125 C 28.75 -2.328125 28.707031 -2.023438 28.625 -1.671875 C 28.550781 -1.316406 28.363281 -0.984375 28.0625 -0.671875 C 27.757812 -0.359375 27.300781 -0.09375 26.6875 0.125 C 26.082031 0.351562 25.265625 0.46875 24.234375 0.46875 C 23.191406 0.46875 22.367188 0.34375 21.765625 0.09375 C 21.171875 -0.144531 20.722656 -0.429688 20.421875 -0.765625 C 20.117188 -1.097656 19.925781 -1.4375 19.84375 -1.78125 C 19.769531 -2.132812 19.734375 -2.421875 19.734375 -2.640625 L 19.734375 -23.40625 C 19.734375 -23.675781 19.691406 -23.953125 19.609375 -24.234375 C 19.535156 -24.523438 19.421875 -24.785156 19.265625 -25.015625 C 19.109375 -25.253906 18.910156 -25.445312 18.671875 -25.59375 C 18.441406 -25.738281 18.171875 -25.8125 17.859375 -25.8125 C 17.328125 -25.8125 16.804688 -25.660156 16.296875 -25.359375 C 15.785156 -25.054688 15.3125 -24.707031 14.875 -24.3125 C 14.4375 -23.925781 14.054688 -23.535156 13.734375 -23.140625 C 13.410156 -22.742188 13.175781 -22.453125 13.03125 -22.265625 L 13.03125 -2.578125 C 13.03125 -2.328125 12.988281 -2.023438 12.90625 -1.671875 C 12.832031 -1.316406 12.644531 -0.984375 12.34375 -0.671875 C 12.039062 -0.359375 11.59375 -0.09375 11 0.125 C 10.40625 0.351562 9.585938 0.46875 8.546875 0.46875 C 7.503906 0.46875 6.6875 0.34375 6.09375 0.09375 C 5.5 -0.144531 5.046875 -0.429688 4.734375 -0.765625 C 4.421875 -1.097656 4.222656 -1.4375 4.140625 -1.78125 C 4.054688 -2.132812 4.015625 -2.421875 4.015625 -2.640625 L 4.015625 -25.3125 C 4.015625 -25.882812 3.882812 -26.378906 3.625 -26.796875 C 3.363281 -27.210938 2.921875 -27.421875 2.296875 -27.421875 C 1.960938 -27.421875 1.675781 -27.363281 1.4375 -27.25 C 1.207031 -27.132812 0.953125 -26.96875 0.671875 -26.75 L 0.0625 -27.484375 C 0.507812 -27.859375 1.007812 -28.222656 1.5625 -28.578125 C 2.125 -28.941406 2.726562 -29.257812 3.375 -29.53125 C 4.019531 -29.8125 4.710938 -30.039062 5.453125 -30.21875 C 6.203125 -30.394531 6.988281 -30.484375 7.8125 -30.484375 C 9.082031 -30.484375 10.066406 -30.269531 10.765625 -29.84375 C 11.472656 -29.425781 11.992188 -28.921875 12.328125 -28.328125 C 12.660156 -27.742188 12.859375 -27.132812 12.921875 -26.5 C 12.992188 -25.863281 13.03125 -25.332031 13.03125 -24.90625 C 13.957031 -25.9375 14.945312 -26.863281 16 -27.6875 C 16.4375 -28.039062 16.910156 -28.382812 17.421875 -28.71875 C 17.941406 -29.050781 18.472656 -29.347656 19.015625 -29.609375 C 19.566406 -29.878906 20.132812 -30.09375 20.71875 -30.25 C 21.3125 -30.40625 21.90625 -30.484375 22.5 -30.484375 C 23.632812 -30.484375 24.601562 -30.273438 25.40625 -29.859375 C 26.207031 -29.453125 26.851562 -28.957031 27.34375 -28.375 C 27.832031 -27.800781 28.1875 -27.195312 28.40625 -26.5625 C 28.632812 -25.925781 28.75 -25.375 28.75 -24.90625 C 29.6875 -25.9375 30.675781 -26.863281 31.71875 -27.6875 C 32.144531 -28.039062 32.613281 -28.382812 33.125 -28.71875 C 33.632812 -29.050781 34.164062 -29.347656 34.71875 -29.609375 C 35.28125 -29.878906 35.847656 -30.09375 36.421875 -30.25 C 37.003906 -30.40625 37.585938 -30.484375 38.171875 -30.484375 C 39.304688 -30.484375 40.273438 -30.269531 41.078125 -29.84375 C 41.878906 -29.425781 42.523438 -28.875 43.015625 -28.1875 C 43.503906 -27.5 43.863281 -26.722656 44.09375 -25.859375 C 44.320312 -25.003906 44.4375 -24.144531 44.4375 -23.28125 L 44.4375 -5.109375 C 44.4375 -4.929688 44.441406 -4.738281 44.453125 -4.53125 C 44.472656 -4.332031 44.519531 -4.140625 44.59375 -3.953125 C 44.675781 -3.765625 44.800781 -3.609375 44.96875 -3.484375 C 45.132812 -3.367188 45.359375 -3.3125 45.640625 -3.3125 C 46.003906 -3.3125 46.332031 -3.441406 46.625 -3.703125 C 46.925781 -3.972656 47.203125 -4.242188 47.453125 -4.515625 L 48.15625 -3.90625 C 47.882812 -3.488281 47.519531 -3.03125 47.0625 -2.53125 C 46.613281 -2.039062 46.082031 -1.566406 45.46875 -1.109375 C 44.851562 -0.660156 44.140625 -0.285156 43.328125 0.015625 C 42.515625 0.316406 41.597656 0.46875 40.578125 0.46875 C 39.722656 0.46875 38.972656 0.351562 38.328125 0.125 C 37.691406 -0.09375 37.15625 -0.390625 36.71875 -0.765625 C 36.28125 -1.148438 35.953125 -1.601562 35.734375 -2.125 C 35.523438 -2.644531 35.421875 -3.195312 35.421875 -3.78125 L 35.421875 -23.40625 C 35.421875 -23.675781 35.378906 -23.953125 35.296875 -24.234375 C 35.222656 -24.523438 35.109375 -24.785156 34.953125 -25.015625 C 34.804688 -25.253906 34.613281 -25.445312 34.375 -25.59375 C 34.144531 -25.738281 33.875 -25.8125 33.5625 -25.8125 C 33.03125 -25.8125 32.503906 -25.660156 31.984375 -25.359375 C 31.472656 -25.054688 30.992188 -24.707031 30.546875 -24.3125 C 30.109375 -23.925781 29.734375 -23.535156 29.421875 -23.140625 C 29.109375 -22.742188 28.882812 -22.453125 28.75 -22.265625 Z M 28.75 -2.578125 "/></g></g></g><g fill="#0a5d2b" fill-opacity="1"><g transform="translate(143.964855, 57.934394)"><g><path d="M 28.75 -2.578125 C 28.75 -2.328125 28.707031 -2.023438 28.625 -1.671875 C 28.550781 -1.316406 28.363281 -0.984375 28.0625 -0.671875 C 27.757812 -0.359375 27.300781 -0.09375 26.6875 0.125 C 26.082031 0.351562 25.265625 0.46875 24.234375 0.46875 C 23.191406 0.46875 22.367188 0.34375 21.765625 0.09375 C 21.171875 -0.144531 20.722656 -0.429688 20.421875 -0.765625 C 20.117188 -1.097656 19.925781 -1.4375 19.84375 -1.78125 C 19.769531 -2.132812 19.734375 -2.421875 19.734375 -2.640625 L 19.734375 -23.40625 C 19.734375 -23.675781 19.691406 -23.953125 19.609375 -24.234375 C 19.535156 -24.523438 19.421875 -24.785156 19.265625 -25.015625 C 19.109375 -25.253906 18.910156 -25.445312 18.671875 -25.59375 C 18.441406 -25.738281 18.171875 -25.8125 17.859375 -25.8125 C 17.328125 -25.8125 16.804688 -25.660156 16.296875 -25.359375 C 15.785156 -25.054688 15.3125 -24.707031 14.875 -24.3125 C 14.4375 -23.925781 14.054688 -23.535156 13.734375 -23.140625 C 13.410156 -22.742188 13.175781 -22.453125 13.03125 -22.265625 L 13.03125 -2.578125 C 13.03125 -2.328125 12.988281 -2.023438 12.90625 -1.671875 C 12.832031 -1.316406 12.644531 -0.984375 12.34375 -0.671875 C 12.039062 -0.359375 11.59375 -0.09375 11 0.125 C 10.40625 0.351562 9.585938 0.46875 8.546875 0.46875 C 7.503906 0.46875 6.6875 0.34375 6.09375 0.09375 C 5.5 -0.144531 5.046875 -0.429688 4.734375 -0.765625 C 4.421875 -1.097656 4.222656 -1.4375 4.140625 -1.78125 C 4.054688 -2.132812 4.015625 -2.421875 4.015625 -2.640625 L 4.015625 -25.3125 C 4.015625 -25.882812 3.882812 -26.378906 3.625 -26.796875 C 3.363281 -27.210938 2.921875 -27.421875 2.296875 -27.421875 C 1.960938 -27.421875 1.675781 -27.363281 1.4375 -27.25 C 1.207031 -27.132812 0.953125 -26.96875 0.671875 -26.75 L 0.0625 -27.484375 C 0.507812 -27.859375 1.007812 -28.222656 1.5625 -28.578125 C 2.125 -28.941406 2.726562 -29.257812 3.375 -29.53125 C 4.019531 -29.8125 4.710938 -30.039062 5.453125 -30.21875 C 6.203125 -30.394531 6.988281 -30.484375 7.8125 -30.484375 C 9.082031 -30.484375 10.066406 -30.269531 10.765625 -29.84375 C 11.472656 -29.425781 11.992188 -28.921875 12.328125 -28.328125 C 12.660156 -27.742188 12.859375 -27.132812 12.921875 -26.5 C 12.992188 -25.863281 13.03125 -25.332031 13.03125 -24.90625 C 13.957031 -25.9375 14.945312 -26.863281 16 -27.6875 C 16.4375 -28.039062 16.910156 -28.382812 17.421875 -28.71875 C 17.941406 -29.050781 18.472656 -29.347656 19.015625 -29.609375 C 19.566406 -29.878906 20.132812 -30.09375 20.71875 -30.25 C 21.3125 -30.40625 21.90625 -30.484375 22.5 -30.484375 C 23.632812 -30.484375 24.601562 -30.273438 25.40625 -29.859375 C 26.207031 -29.453125 26.851562 -28.957031 27.34375 -28.375 C 27.832031 -27.800781 28.1875 -27.195312 28.40625 -26.5625 C 28.632812 -25.925781 28.75 -25.375 28.75 -24.90625 C 29.6875 -25.9375 30.675781 -26.863281 31.71875 -27.6875 C 32.144531 -28.039062 32.613281 -28.382812 33.125 -28.71875 C 33.632812 -29.050781 34.164062 -29.347656 34.71875 -29.609375 C 35.28125 -29.878906 35.847656 -30.09375 36.421875 -30.25 C 37.003906 -30.40625 37.585938 -30.484375 38.171875 -30.484375 C 39.304688 -30.484375 40.273438 -30.269531 41.078125 -29.84375 C 41.878906 -29.425781 42.523438 -28.875 43.015625 -28.1875 C 43.503906 -27.5 43.863281 -26.722656 44.09375 -25.859375 C 44.320312 -25.003906 44.4375 -24.144531 44.4375 -23.28125 L 44.4375 -5.109375 C 44.4375 -4.929688 44.441406 -4.738281 44.453125 -4.53125 C 44.472656 -4.332031 44.519531 -4.140625 44.59375 -3.953125 C 44.675781 -3.765625 44.800781 -3.609375 44.96875 -3.484375 C 45.132812 -3.367188 45.359375 -3.3125 45.640625 -3.3125 C 46.003906 -3.3125 46.332031 -3.441406 46.625 -3.703125 C 46.925781 -3.972656 47.203125 -4.242188 47.453125 -4.515625 L 48.15625 -3.90625 C 47.882812 -3.488281 47.519531 -3.03125 47.0625 -2.53125 C 46.613281 -2.039062 46.082031 -1.566406 45.46875 -1.109375 C 44.851562 -0.660156 44.140625 -0.285156 43.328125 0.015625 C 42.515625 0.316406 41.597656 0.46875 40.578125 0.46875 C 39.722656 0.46875 38.972656 0.351562 38.328125 0.125 C 37.691406 -0.09375 37.15625 -0.390625 36.71875 -0.765625 C 36.28125 -1.148438 35.953125 -1.601562 35.734375 -2.125 C 35.523438 -2.644531 35.421875 -3.195312 35.421875 -3.78125 L 35.421875 -23.40625 C 35.421875 -23.675781 35.378906 -23.953125 35.296875 -24.234375 C 35.222656 -24.523438 35.109375 -24.785156 34.953125 -25.015625 C 34.804688 -25.253906 34.613281 -25.445312 34.375 -25.59375 C 34.144531 -25.738281 33.875 -25.8125 33.5625 -25.8125 C 33.03125 -25.8125 32.503906 -25.660156 31.984375 -25.359375 C 31.472656 -25.054688 30.992188 -24.707031 30.546875 -24.3125 C 30.109375 -23.925781 29.734375 -23.535156 29.421875 -23.140625 C 29.109375 -22.742188 28.882812 -22.453125 28.75 -22.265625 Z M 28.75 -2.578125 "/></g></g></g></g></g><g transform="matrix(1, 0, 0, 1, 128, 268)"><g clip-path="url(#4128a765ee)"><g fill="#0a5d2b" fill-opacity="1"><g transform="translate(0.951501, 13.020494)"><g><path d="M 1.078125 0 L 1.078125 -8.28125 L 4.609375 -8.28125 C 5.117188 -8.28125 5.550781 -8.203125 5.90625 -8.046875 C 6.257812 -7.890625 6.523438 -7.660156 6.703125 -7.359375 C 6.890625 -7.066406 6.984375 -6.71875 6.984375 -6.3125 C 6.984375 -5.945312 6.894531 -5.625 6.71875 -5.34375 C 6.539062 -5.0625 6.285156 -4.835938 5.953125 -4.671875 L 5.953125 -4.546875 C 6.472656 -4.410156 6.875 -4.160156 7.15625 -3.796875 C 7.4375 -3.441406 7.578125 -3.003906 7.578125 -2.484375 C 7.578125 -1.691406 7.335938 -1.078125 6.859375 -0.640625 C 6.390625 -0.210938 5.679688 0 4.734375 0 Z M 4.28125 -4.984375 C 5.039062 -4.984375 5.421875 -5.328125 5.421875 -6.015625 C 5.421875 -6.367188 5.328125 -6.628906 5.140625 -6.796875 C 4.953125 -6.972656 4.664062 -7.0625 4.28125 -7.0625 L 2.71875 -7.0625 L 2.71875 -4.984375 Z M 4.578125 -1.296875 C 5.472656 -1.296875 5.921875 -1.707031 5.921875 -2.53125 C 5.921875 -3.351562 5.472656 -3.765625 4.578125 -3.765625 L 2.71875 -3.765625 L 2.71875 -1.296875 Z M 4.578125 -1.296875 "/></g></g></g><g fill="#0a5d2b" fill-opacity="1"><g transform="translate(11.582309, 13.020494)"><g><path d="M 1.078125 0 L 1.078125 -8.28125 L 4.40625 -8.28125 C 5.257812 -8.28125 5.90625 -8.082031 6.34375 -7.6875 C 6.78125 -7.300781 7 -6.757812 7 -6.0625 C 7 -5.5625 6.867188 -5.148438 6.609375 -4.828125 C 6.359375 -4.503906 5.976562 -4.257812 5.46875 -4.09375 L 5.46875 -3.96875 C 5.726562 -3.851562 5.9375 -3.679688 6.09375 -3.453125 C 6.257812 -3.234375 6.414062 -2.90625 6.5625 -2.46875 L 7.390625 0 L 5.703125 0 L 4.890625 -2.484375 C 4.804688 -2.722656 4.710938 -2.910156 4.609375 -3.046875 C 4.515625 -3.191406 4.382812 -3.296875 4.21875 -3.359375 C 4.0625 -3.421875 3.851562 -3.453125 3.59375 -3.453125 L 2.71875 -3.453125 L 2.71875 0 Z M 4.203125 -4.75 C 4.992188 -4.75 5.390625 -5.117188 5.390625 -5.859375 C 5.390625 -6.609375 4.992188 -6.984375 4.203125 -6.984375 L 2.71875 -6.984375 L 2.71875 -4.75 Z M 4.203125 -4.75 "/></g></g></g><g fill="#0a5d2b" fill-opacity="1"><g transform="translate(21.856233, 13.020494)"><g><path d="M 4.515625 0.125 C 3.753906 0.125 3.082031 -0.03125 2.5 -0.34375 C 1.925781 -0.65625 1.472656 -1.128906 1.140625 -1.765625 C 0.816406 -2.398438 0.65625 -3.191406 0.65625 -4.140625 C 0.65625 -5.085938 0.816406 -5.878906 1.140625 -6.515625 C 1.472656 -7.160156 1.925781 -7.632812 2.5 -7.9375 C 3.082031 -8.25 3.753906 -8.40625 4.515625 -8.40625 C 5.273438 -8.40625 5.941406 -8.25 6.515625 -7.9375 C 7.097656 -7.632812 7.550781 -7.160156 7.875 -6.515625 C 8.207031 -5.878906 8.375 -5.085938 8.375 -4.140625 C 8.375 -3.191406 8.207031 -2.398438 7.875 -1.765625 C 7.550781 -1.128906 7.097656 -0.65625 6.515625 -0.34375 C 5.941406 -0.03125 5.273438 0.125 4.515625 0.125 Z M 4.515625 -1.296875 C 5.222656 -1.296875 5.757812 -1.519531 6.125 -1.96875 C 6.5 -2.425781 6.6875 -3.148438 6.6875 -4.140625 C 6.6875 -5.128906 6.5 -5.847656 6.125 -6.296875 C 5.757812 -6.753906 5.222656 -6.984375 4.515625 -6.984375 C 3.804688 -6.984375 3.265625 -6.753906 2.890625 -6.296875 C 2.523438 -5.847656 2.34375 -5.128906 2.34375 -4.140625 C 2.34375 -3.148438 2.523438 -2.425781 2.890625 -1.96875 C 3.265625 -1.519531 3.804688 -1.296875 4.515625 -1.296875 Z M 4.515625 -1.296875 "/></g></g></g><g fill="#0a5d2b" fill-opacity="1"><g transform="translate(33.410409, 13.020494)"><g><path d="M 6.640625 -8.28125 L 6.640625 -6.90625 L 4.25 -6.90625 L 4.25 0 L 2.625 0 L 2.625 -6.90625 L 0.234375 -6.90625 L 0.234375 -8.28125 Z M 6.640625 -8.28125 "/></g></g></g><g fill="#0a5d2b" fill-opacity="1"><g transform="translate(42.806284, 13.020494)"><g><path d="M 6.421875 -5.171875 L 6.421875 -8.28125 L 8.0625 -8.28125 L 8.0625 0 L 6.421875 0 L 6.421875 -3.78125 L 2.71875 -3.78125 L 2.71875 0 L 1.078125 0 L 1.078125 -8.28125 L 2.71875 -8.28125 L 2.71875 -5.171875 Z M 6.421875 -5.171875 "/></g></g></g><g fill="#0a5d2b" fill-opacity="1"><g transform="translate(54.473756, 13.020494)"><g><path d="M 2.71875 -3.640625 L 2.71875 -1.375 L 6.671875 -1.375 L 6.671875 0 L 1.078125 0 L 1.078125 -8.28125 L 6.578125 -8.28125 L 6.578125 -6.921875 L 2.71875 -6.921875 L 2.71875 -4.984375 L 6.09375 -4.984375 L 6.09375 -3.640625 Z M 2.71875 -3.640625 "/></g></g></g><g fill="#0a5d2b" fill-opacity="1"><g transform="translate(64.124548, 13.020494)"><g><path d="M 1.078125 0 L 1.078125 -8.28125 L 4.40625 -8.28125 C 5.257812 -8.28125 5.90625 -8.082031 6.34375 -7.6875 C 6.78125 -7.300781 7 -6.757812 7 -6.0625 C 7 -5.5625 6.867188 -5.148438 6.609375 -4.828125 C 6.359375 -4.503906 5.976562 -4.257812 5.46875 -4.09375 L 5.46875 -3.96875 C 5.726562 -3.851562 5.9375 -3.679688 6.09375 -3.453125 C 6.257812 -3.234375 6.414062 -2.90625 6.5625 -2.46875 L 7.390625 0 L 5.703125 0 L 4.890625 -2.484375 C 4.804688 -2.722656 4.710938 -2.910156 4.609375 -3.046875 C 4.515625 -3.191406 4.382812 -3.296875 4.21875 -3.359375 C 4.0625 -3.421875 3.851562 -3.453125 3.59375 -3.453125 L 2.71875 -3.453125 L 2.71875 0 Z M 4.203125 -4.75 C 4.992188 -4.75 5.390625 -5.117188 5.390625 -5.859375 C 5.390625 -6.609375 4.992188 -6.984375 4.203125 -6.984375 L 2.71875 -6.984375 L 2.71875 -4.75 Z M 4.203125 -4.75 "/></g></g></g><g fill="#0a5d2b" fill-opacity="1"><g transform="translate(74.398472, 13.020494)"><g><path d="M 6.421875 -5.171875 L 6.421875 -8.28125 L 8.0625 -8.28125 L 8.0625 0 L 6.421875 0 L 6.421875 -3.78125 L 2.71875 -3.78125 L 2.71875 0 L 1.078125 0 L 1.078125 -8.28125 L 2.71875 -8.28125 L 2.71875 -5.171875 Z M 6.421875 -5.171875 "/></g></g></g><g fill="#0a5d2b" fill-opacity="1"><g transform="translate(86.065945, 13.020494)"><g><path d="M 4.515625 0.125 C 3.753906 0.125 3.082031 -0.03125 2.5 -0.34375 C 1.925781 -0.65625 1.472656 -1.128906 1.140625 -1.765625 C 0.816406 -2.398438 0.65625 -3.191406 0.65625 -4.140625 C 0.65625 -5.085938 0.816406 -5.878906 1.140625 -6.515625 C 1.472656 -7.160156 1.925781 -7.632812 2.5 -7.9375 C 3.082031 -8.25 3.753906 -8.40625 4.515625 -8.40625 C 5.273438 -8.40625 5.941406 -8.25 6.515625 -7.9375 C 7.097656 -7.632812 7.550781 -7.160156 7.875 -6.515625 C 8.207031 -5.878906 8.375 -5.085938 8.375 -4.140625 C 8.375 -3.191406 8.207031 -2.398438 7.875 -1.765625 C 7.550781 -1.128906 7.097656 -0.65625 6.515625 -0.34375 C 5.941406 -0.03125 5.273438 0.125 4.515625 0.125 Z M 4.515625 -1.296875 C 5.222656 -1.296875 5.757812 -1.519531 6.125 -1.96875 C 6.5 -2.425781 6.6875 -3.148438 6.6875 -4.140625 C 6.6875 -5.128906 6.5 -5.847656 6.125 -6.296875 C 5.757812 -6.753906 5.222656 -6.984375 4.515625 -6.984375 C 3.804688 -6.984375 3.265625 -6.753906 2.890625 -6.296875 C 2.523438 -5.847656 2.34375 -5.128906 2.34375 -4.140625 C 2.34375 -3.148438 2.523438 -2.425781 2.890625 -1.96875 C 3.265625 -1.519531 3.804688 -1.296875 4.515625 -1.296875 Z M 4.515625 -1.296875 "/></g></g></g><g fill="#0a5d2b" fill-opacity="1"><g transform="translate(97.620121, 13.020494)"><g><path d="M 4.515625 0.125 C 3.753906 0.125 3.082031 -0.03125 2.5 -0.34375 C 1.925781 -0.65625 1.472656 -1.128906 1.140625 -1.765625 C 0.816406 -2.398438 0.65625 -3.191406 0.65625 -4.140625 C 0.65625 -5.085938 0.816406 -5.878906 1.140625 -6.515625 C 1.472656 -7.160156 1.925781 -7.632812 2.5 -7.9375 C 3.082031 -8.25 3.753906 -8.40625 4.515625 -8.40625 C 5.273438 -8.40625 5.941406 -8.25 6.515625 -7.9375 C 7.097656 -7.632812 7.550781 -7.160156 7.875 -6.515625 C 8.207031 -5.878906 8.375 -5.085938 8.375 -4.140625 C 8.375 -3.191406 8.207031 -2.398438 7.875 -1.765625 C 7.550781 -1.128906 7.097656 -0.65625 6.515625 -0.34375 C 5.941406 -0.03125 5.273438 0.125 4.515625 0.125 Z M 4.515625 -1.296875 C 5.222656 -1.296875 5.757812 -1.519531 6.125 -1.96875 C 6.5 -2.425781 6.6875 -3.148438 6.6875 -4.140625 C 6.6875 -5.128906 6.5 -5.847656 6.125 -6.296875 C 5.757812 -6.753906 5.222656 -6.984375 4.515625 -6.984375 C 3.804688 -6.984375 3.265625 -6.753906 2.890625 -6.296875 C 2.523438 -5.847656 2.34375 -5.128906 2.34375 -4.140625 C 2.34375 -3.148438 2.523438 -2.425781 2.890625 -1.96875 C 3.265625 -1.519531 3.804688 -1.296875 4.515625 -1.296875 Z M 4.515625 -1.296875 "/></g></g></g><g fill="#0a5d2b" fill-opacity="1"><g transform="translate(109.174297, 13.020494)"><g><path d="M 4.0625 -8.28125 C 5.40625 -8.28125 6.429688 -7.929688 7.140625 -7.234375 C 7.847656 -6.546875 8.203125 -5.515625 8.203125 -4.140625 C 8.203125 -2.773438 7.847656 -1.742188 7.140625 -1.046875 C 6.429688 -0.347656 5.40625 0 4.0625 0 L 1.078125 0 L 1.078125 -8.28125 Z M 3.96875 -1.375 C 4.820312 -1.375 5.457031 -1.59375 5.875 -2.03125 C 6.300781 -2.46875 6.515625 -3.171875 6.515625 -4.140625 C 6.515625 -5.109375 6.300781 -5.8125 5.875 -6.25 C 5.457031 -6.6875 4.820312 -6.90625 3.96875 -6.90625 L 2.71875 -6.90625 L 2.71875 -1.375 Z M 3.96875 -1.375 "/></g></g></g></g></g></svg>