<svg xmlns="http://www.w3.org/2000/svg" xmlns:xlink="http://www.w3.org/1999/xlink" width="500" zoomAndPan="magnify" viewBox="0 0 375 374.999991" height="500" preserveAspectRatio="xMidYMid meet" version="1.0"><defs><g/><clipPath id="43fdccb066"><path d="M 139 110.375 L 223.644531 110.375 L 223.644531 202.625 L 139 202.625 Z M 139 110.375 " clip-rule="nonzero"/></clipPath><clipPath id="5e1c79d378"><rect x="0" width="108" y="0" height="39"/></clipPath><clipPath id="f5cce72cf2"><rect x="0" width="104" y="0" height="39"/></clipPath><clipPath id="ab7ca61f03"><path d="M 0.121094 3 L 5 3 L 5 9 L 0.121094 9 Z M 0.121094 3 " clip-rule="nonzero"/></clipPath><clipPath id="460cf3500e"><rect x="0" width="147" y="0" height="11"/></clipPath></defs><rect x="-37.5" width="450" fill="#ffffff" y="-37.499999" height="449.999989" fill-opacity="1"/><rect x="-37.5" width="450" fill="#ffffff" y="-37.499999" height="449.999989" fill-opacity="1"/><g clip-path="url(#43fdccb066)"><path fill="#fbbe06" d="M 195.304688 200.949219 C 195.441406 200.847656 195.578125 200.742188 195.71875 200.628906 C 197.089844 199.527344 197.703125 198.410156 198.695312 197.046875 C 199.1875 196.371094 199.625 195.878906 200.128906 195.203125 C 202.011719 192.671875 200.09375 191.863281 201.316406 190.925781 C 202.246094 190.210938 203.847656 190.308594 204.117188 188.859375 C 204.378906 187.441406 203.910156 186.011719 203.417969 184.777344 C 203.109375 184.007812 203.53125 183.476562 203.957031 183.132812 C 204.394531 182.777344 204.9375 182.539062 205.355469 182.140625 C 206.554688 181 206.746094 180.777344 208.191406 180.105469 C 208.65625 179.890625 209.328125 179.40625 209.667969 179.101562 C 210.027344 178.78125 210.472656 178.175781 210.535156 177.578125 C 210.617188 176.742188 210.4375 176.011719 210.4375 175.195312 C 210.4375 174.84375 210.449219 174.539062 210.460938 174.269531 C 210.066406 173.347656 209.675781 172.558594 209.371094 172.164062 C 208.535156 171.09375 207.882812 170.605469 207.574219 169.898438 C 207.269531 169.191406 206.433594 166.875 206.164062 166.800781 C 205.890625 166.730469 205.382812 166.820312 204.605469 167.542969 C 203.824219 168.269531 203.535156 167.851562 202.757812 167.617188 C 201.976562 167.382812 200.363281 167.507812 199.421875 167.273438 C 198.480469 167.039062 195.726562 166.132812 195.5625 165.949219 C 195.398438 165.769531 193.226562 167.128906 192.863281 167.308594 C 192.5 167.492188 193.714844 167.128906 193.75 167.453125 C 193.789062 167.78125 194.332031 173.199219 194.332031 173.902344 C 194.332031 174.609375 194.367188 177.890625 194.894531 179.304688 C 195.417969 180.71875 195.144531 181.660156 195.109375 182.691406 C 195.074219 183.722656 194.894531 186.949219 195.183594 190.191406 C 195.472656 193.4375 196.324219 196.644531 196.144531 197.0625 C 195.960938 197.476562 195.871094 197.9375 195.308594 198.425781 C 194.746094 198.917969 194.628906 199.421875 194.601562 199.722656 C 194.582031 199.933594 195.054688 200.542969 195.304688 200.949219 M 188.128906 202.683594 C 189.140625 202.460938 190.289062 202.773438 191.148438 202.632812 C 191.757812 202.53125 192.28125 202.414062 192.75 202.273438 C 191.433594 202.234375 189.753906 202.1875 189.992188 201.933594 C 190.324219 201.570312 191.167969 200.339844 191.414062 200.4375 C 191.660156 200.539062 192.882812 201.363281 192.882812 201.363281 C 192.882812 201.363281 191.339844 200.375 191.660156 199.769531 C 191.976562 199.160156 192.382812 198.996094 192.445312 198.4375 C 192.511719 197.875 192.574219 196.523438 192.773438 195.691406 C 192.972656 194.859375 193.207031 194.566406 193.1875 193.082031 C 193.171875 191.597656 192.519531 186.179688 192.300781 185.128906 C 192.082031 184.078125 191.414062 183.082031 191.394531 182.210938 C 191.378906 181.339844 191.121094 176.832031 191.121094 176.832031 C 191.121094 176.832031 190.90625 181.792969 190.6875 183.136719 C 190.472656 184.476562 189.636719 187.808594 189.636719 190.78125 C 189.636719 193.753906 189.621094 197.792969 189.148438 198.699219 C 188.675781 199.605469 187.808594 199.929688 187.535156 200.65625 C 187.265625 201.382812 187.699219 201.691406 187.898438 202.035156 C 187.988281 202.191406 188.070312 202.449219 188.128906 202.683594 Z M 153.472656 112.6875 C 153.15625 112.945312 153.078125 112.9375 152.878906 113.382812 C 152.75 113.671875 152.652344 113.992188 152.519531 114.308594 C 151.855469 115.863281 150.007812 115.757812 149.15625 117.40625 L 148.652344 118.285156 C 147.851562 119.683594 149.488281 120.464844 147.359375 122.070312 C 146.828125 122.472656 146.535156 122.808594 145.832031 123.117188 C 145.148438 123.421875 144.503906 123.503906 144.113281 124.082031 C 143.589844 124.863281 143.953125 124.96875 143 125.558594 C 142.371094 125.953125 142.511719 126.664062 142.113281 127.351562 C 141.785156 127.917969 141.402344 128.320312 141.015625 128.832031 C 140.402344 129.644531 139.121094 131.367188 139.671875 132.382812 C 140.203125 133.363281 140.160156 133.238281 140.335938 134.394531 C 140.636719 136.390625 140.667969 137.121094 139.992188 138.847656 C 138.9375 141.535156 139.550781 140.242188 139.835938 141.65625 C 139.945312 142.207031 139.726562 142.300781 139.808594 142.867188 C 139.964844 143.949219 140.410156 143.679688 141.113281 144.148438 C 141.691406 144.53125 141.835938 145.148438 142.320312 145.628906 C 142.960938 146.261719 143.632812 146.902344 144.082031 147.738281 C 144.269531 148.085938 144.296875 148.34375 144.5 148.714844 C 145.15625 149.902344 146.25 150.347656 147.324219 151.148438 C 149.390625 152.691406 149.945312 153.847656 152.691406 152.835938 C 153.300781 152.613281 154.046875 152.421875 154.890625 152.363281 C 156.90625 152.222656 157.328125 153.121094 159.476562 152.265625 C 161.496094 151.457031 165.601562 149.308594 166.921875 152.015625 C 167.210938 152.601562 167.382812 153.308594 168.1875 153.359375 C 170.0625 153.472656 170.550781 152.359375 172.191406 154.007812 C 173.140625 154.960938 172.667969 157.042969 172.382812 158.320312 C 172.300781 158.691406 172.265625 159.011719 172.109375 159.335938 C 171.949219 159.65625 171.710938 159.890625 171.789062 160.351562 C 171.9375 161.1875 173.539062 162.804688 174.035156 163.394531 C 175.242188 164.828125 175.210938 165.019531 175.960938 166.726562 C 176.234375 167.339844 176.582031 167.800781 176.855469 168.414062 C 177.363281 169.5625 176.644531 169.609375 176.898438 170.65625 C 177.289062 172.257812 178.359375 172.753906 177 174.558594 C 175.554688 176.472656 174.417969 180.054688 175.835938 182.550781 C 176.734375 184.132812 178.015625 185.980469 178.332031 187.902344 C 178.46875 188.710938 178.511719 189.4375 178.691406 190.21875 C 179.035156 191.6875 179.164062 193.164062 179.925781 194.269531 C 180.851562 195.613281 181.265625 195.539062 182.035156 197.417969 C 182.269531 197.988281 183.175781 199.589844 183.226562 200.078125 C 183.3125 200.957031 182.15625 201.078125 183.429688 202.53125 C 183.878906 202.042969 184.453125 201.542969 184.546875 201.652344 C 184.671875 201.796875 186.03125 202.414062 186.03125 202.414062 C 186.03125 202.414062 184.457031 201.363281 184.601562 200.964844 C 184.746094 200.566406 185.378906 199.894531 185.652344 198.878906 C 185.921875 197.867188 186.269531 196.289062 186.484375 195.507812 C 186.703125 194.730469 186.8125 193.953125 186.972656 192.628906 C 187.136719 191.308594 187.625 187.121094 187.410156 185.164062 C 187.191406 183.207031 187.082031 182.554688 187.066406 180.382812 C 187.046875 178.207031 186.683594 172.464844 186.105469 170.507812 C 185.523438 168.550781 185.417969 165.796875 184.945312 164.203125 C 184.472656 162.605469 182.589844 159.273438 182.554688 157.714844 C 182.515625 156.15625 183.585938 152.96875 183.914062 152.0625 C 184.238281 151.15625 182.117188 149.996094 181.410156 148.785156 C 180.703125 147.570312 176.9375 144.996094 172.515625 139.015625 C 168.09375 133.039062 165.484375 129.488281 164.941406 128.871094 C 164.398438 128.253906 163.128906 127.984375 162.949219 128.089844 C 162.769531 128.199219 160.773438 128.996094 158.328125 129.289062 C 155.882812 129.578125 155.609375 129.289062 155.15625 129.542969 C 154.703125 129.796875 154.792969 130.140625 154.214844 130.339844 C 153.636719 130.539062 153.09375 130.644531 152.585938 130.355469 C 152.585938 130.355469 151.84375 130.953125 151.644531 130.355469 C 151.445312 129.757812 151.390625 128.871094 152.859375 127.511719 C 154.324219 126.152344 156.101562 124.867188 156.679688 123.636719 C 157.261719 122.402344 157.496094 121.535156 157.875 121.296875 C 158.257812 121.0625 159.164062 121.316406 159.289062 121.042969 C 159.417969 120.773438 161.136719 116.914062 161.445312 116.660156 C 161.753906 116.40625 162.605469 116.605469 162.605469 116.605469 C 162.605469 116.605469 162.207031 116.605469 162.371094 117.3125 C 162.535156 118.019531 162.441406 117.964844 162.207031 118.5625 C 161.972656 119.160156 161.863281 119.957031 162.640625 120.246094 C 163.421875 120.535156 163.964844 120.101562 164.5625 120.390625 C 165.160156 120.679688 165.648438 121.097656 165.648438 121.097656 C 165.648438 121.097656 164.597656 120.882812 164.289062 122.113281 C 164.289062 122.113281 164.816406 121.117188 166.230469 121.261719 C 167.644531 121.40625 168.058594 121.460938 167.878906 121.769531 C 167.695312 122.078125 167.097656 123.382812 166.5 123.761719 C 166.5 123.761719 167.550781 123.328125 167.695312 122.945312 C 167.695312 122.945312 168.277344 123.691406 169.253906 124.703125 C 170.234375 125.71875 174.726562 130.683594 179.21875 133.980469 C 183.714844 137.277344 188.351562 139.234375 191.214844 140.902344 C 194.078125 142.570312 197.195312 143.765625 198.714844 144.816406 C 200.238281 145.867188 201.832031 147.171875 205.746094 147.96875 C 209.660156 148.765625 210.167969 148.4375 213.320312 150.539062 C 215.859375 152.234375 217.667969 153.292969 218.636719 154.414062 C 218.703125 154.34375 218.769531 154.269531 218.832031 154.195312 C 220.484375 152.265625 220.585938 151.75 221.746094 149.855469 C 222.316406 148.921875 223.148438 147.539062 223.375 146.511719 C 223.484375 146.015625 223.714844 144.777344 223.460938 144.269531 C 223.4375 144.257812 223.398438 144.226562 223.386719 144.25 C 223.375 144.273438 223.332031 144.234375 223.316406 144.234375 L 223.171875 144.230469 C 222.808594 144.285156 222.652344 144.503906 222.308594 144.652344 C 221.21875 145.125 219.328125 145.296875 218.136719 145.546875 C 216.152344 145.96875 215.648438 146.582031 214.289062 145.191406 C 213.9375 144.832031 213.824219 144.671875 213.414062 144.394531 C 213.808594 143.898438 214.152344 143.566406 213.449219 142.855469 C 211.070312 140.46875 210.246094 140.355469 209.566406 139.683594 C 208.632812 138.761719 208.855469 137.425781 208.078125 136.503906 C 207.070312 135.308594 206.515625 135.722656 206.375 133.554688 C 206.234375 131.421875 206.210938 131.726562 204.898438 130.34375 C 204.378906 129.804688 204.5 129.492188 204.257812 128.703125 C 203.953125 127.703125 203.246094 126.417969 202.78125 125.5 C 202.257812 124.46875 201.640625 123.589844 201.011719 122.601562 C 200.707031 122.121094 200.273438 121.492188 200.722656 120.976562 C 201.4375 121.382812 201.585938 122.273438 202.015625 122.898438 C 202.289062 123.296875 202.253906 123.164062 202.683594 123.324219 C 202.667969 122.75 202.300781 121.949219 202.179688 121.347656 C 201.667969 118.898438 202.132812 119.558594 200.621094 119.117188 C 199.089844 118.675781 199.332031 118.40625 197.605469 119.058594 C 195.71875 119.769531 195.011719 119.019531 193.375 118.707031 C 191.890625 118.417969 190.449219 118.242188 189.335938 117.585938 C 188.757812 117.242188 188.441406 116.789062 187.570312 116.75 C 186.878906 116.714844 185.894531 117.125 185.566406 117.449219 C 184.597656 118.390625 185.972656 119.382812 184.554688 120.113281 C 184.175781 120.308594 183.96875 120.242188 183.566406 120.082031 C 182.894531 119.8125 182.570312 119.449219 181.832031 119.230469 C 181.046875 118.996094 180.339844 119.050781 179.804688 118.578125 C 178.675781 117.585938 180.308594 117.304688 176.429688 116.785156 C 175.402344 116.648438 175.183594 116.617188 174.402344 116.234375 C 171.527344 114.832031 173.394531 114.714844 173.859375 113.6875 C 174.273438 112.773438 173.441406 112.730469 173.28125 112.003906 C 173.574219 111.566406 173.75 111.757812 173.855469 111.089844 C 172.761719 111.089844 172.386719 110.378906 171.355469 110.886719 C 170.558594 111.28125 169.558594 110.988281 168.542969 111.152344 C 167.039062 111.390625 166.878906 111.136719 165.710938 111.191406 C 162.761719 111.328125 161.015625 112.265625 158.570312 113.503906 C 157.882812 113.851562 156.53125 113.65625 155.773438 113.589844 C 155.195312 113.539062 154.8125 113.613281 154.402344 113.375 C 153.984375 113.136719 154.144531 112.972656 153.472656 112.6875 Z M 153.472656 112.6875 " fill-opacity="1" fill-rule="evenodd"/></g><g transform="matrix(1, 0, 0, 1, 109, 213)"><g clip-path="url(#5e1c79d378)"><g fill="#010101" fill-opacity="1"><g transform="translate(1.276226, 30.999159)"><g><path d="M 5.84375 0 L 0.0625 0 L 8 -23.21875 L 13.90625 -23.21875 L 21.859375 0 L 16.078125 0 L 14.828125 -4.171875 L 7.09375 -4.171875 Z M 10.953125 -17.171875 L 8.515625 -8.890625 L 13.390625 -8.890625 Z M 10.953125 -17.171875 "/></g></g></g><g fill="#010101" fill-opacity="1"><g transform="translate(24.707341, 30.999159)"><g><path d="M 7.28125 0 L 1.828125 0 L 1.828125 -23.21875 L 10.59375 -23.21875 L 14.421875 -6.515625 L 18.234375 -23.21875 L 27.03125 -23.21875 L 27.03125 0 L 21.578125 0 L 21.578125 -18.875 L 17.078125 0 L 11.78125 0 L 7.28125 -18.75 Z M 7.28125 0 "/></g></g></g><g fill="#010101" fill-opacity="1"><g transform="translate(55.106714, 30.999159)"><g><path d="M 13.78125 0 L 8.0625 0 L 8.0625 -9.21875 L -0.25 -23.21875 L 6.125 -23.21875 L 10.921875 -14.484375 L 15.734375 -23.21875 L 22.09375 -23.21875 L 13.78125 -9.21875 Z M 13.78125 0 "/></g></g></g></g></g><g transform="matrix(1, 0, 0, 1, 193, 213)"><g clip-path="url(#f5cce72cf2)"><g fill="#010101" fill-opacity="1"><g transform="translate(1.120324, 30.999159)"><g><path d="M 4.5 0 L 2.40625 0 L 2.40625 -23.21875 L 17.203125 -23.21875 L 17.203125 -21.34375 L 4.5 -21.34375 L 4.5 -12.59375 L 15.640625 -12.59375 L 15.640625 -10.75 L 4.5 -10.75 Z M 4.5 0 "/></g></g></g><g fill="#010101" fill-opacity="1"><g transform="translate(21.326231, 30.999159)"><g><path d="M 2.640625 0 L 0.484375 0 L 9.25 -23.21875 L 11.6875 -23.21875 L 20.453125 0 L 18.296875 0 L 15.953125 -6.265625 L 4.984375 -6.265625 Z M 10.46875 -21.0625 L 5.65625 -8.15625 L 15.28125 -8.15625 Z M 10.46875 -21.0625 "/></g></g></g><g fill="#010101" fill-opacity="1"><g transform="translate(44.392476, 30.999159)"><g><path d="M 13.390625 -10.5 L 18.015625 0 L 15.703125 0 L 11.328125 -10.140625 C 11.179688 -10.117188 11.035156 -10.109375 10.890625 -10.109375 C 10.753906 -10.109375 10.601562 -10.109375 10.4375 -10.109375 L 4.5 -10.109375 L 4.5 0 L 2.40625 0 L 2.40625 -23.21875 L 10.4375 -23.21875 C 12.664062 -23.21875 14.453125 -22.671875 15.796875 -21.578125 C 17.140625 -20.484375 17.8125 -18.851562 17.8125 -16.6875 C 17.8125 -15.101562 17.421875 -13.78125 16.640625 -12.71875 C 15.859375 -11.664062 14.773438 -10.925781 13.390625 -10.5 Z M 4.5 -11.9375 L 10.171875 -11.9375 C 11.972656 -11.9375 13.347656 -12.335938 14.296875 -13.140625 C 15.253906 -13.953125 15.734375 -15.113281 15.734375 -16.625 C 15.734375 -18.125 15.242188 -19.285156 14.265625 -20.109375 C 13.296875 -20.929688 11.929688 -21.34375 10.171875 -21.34375 L 4.5 -21.34375 Z M 4.5 -11.9375 "/></g></g></g><g fill="#010101" fill-opacity="1"><g transform="translate(65.967695, 30.999159)"><g><path d="M 2.640625 0 L 0.484375 0 L 9.25 -23.21875 L 11.6875 -23.21875 L 20.453125 0 L 18.296875 0 L 15.953125 -6.265625 L 4.984375 -6.265625 Z M 10.46875 -21.0625 L 5.65625 -8.15625 L 15.28125 -8.15625 Z M 10.46875 -21.0625 "/></g></g></g><g fill="#010101" fill-opacity="1"><g transform="translate(89.033939, 30.999159)"><g><path d="M 3.40625 0 L 0.484375 0 L 0.484375 -1.890625 L 3.40625 -1.890625 C 4.625 -1.890625 5.503906 -2.175781 6.046875 -2.75 C 6.597656 -3.332031 6.875 -4.203125 6.875 -5.359375 L 6.875 -23.21875 L 8.984375 -23.21875 L 8.984375 -5.328125 C 8.984375 -4.234375 8.820312 -3.289062 8.5 -2.5 C 8.1875 -1.707031 7.628906 -1.09375 6.828125 -0.65625 C 6.023438 -0.21875 4.882812 0 3.40625 0 Z M 3.40625 0 "/></g></g></g></g></g><g transform="matrix(1, 0, 0, 1, 117, 254)"><g clip-path="url(#460cf3500e)"><g clip-path="url(#ab7ca61f03)"><g fill="#010101" fill-opacity="1"><g transform="translate(0.357366, 8.613447)"><g><path d="M 4.34375 -4.796875 L 2.59375 -4.796875 L 2.59375 0 L 1.875 0 L 1.875 -4.796875 L 0.109375 -4.796875 L 0.109375 -5.40625 L 4.34375 -5.40625 Z M 4.34375 -4.796875 "/></g></g></g></g><g fill="#010101" fill-opacity="1"><g transform="translate(10.853283, 8.613447)"><g><path d="M 5.6875 -2.703125 C 5.6875 -2.296875 5.617188 -1.921875 5.484375 -1.578125 C 5.359375 -1.242188 5.175781 -0.953125 4.9375 -0.703125 C 4.707031 -0.460938 4.425781 -0.273438 4.09375 -0.140625 C 3.769531 -0.00390625 3.410156 0.0625 3.015625 0.0625 C 2.617188 0.0625 2.253906 -0.00390625 1.921875 -0.140625 C 1.597656 -0.273438 1.316406 -0.460938 1.078125 -0.703125 C 0.847656 -0.953125 0.671875 -1.242188 0.546875 -1.578125 C 0.421875 -1.921875 0.359375 -2.296875 0.359375 -2.703125 C 0.359375 -3.109375 0.421875 -3.476562 0.546875 -3.8125 C 0.671875 -4.15625 0.847656 -4.445312 1.078125 -4.6875 C 1.316406 -4.9375 1.597656 -5.128906 1.921875 -5.265625 C 2.253906 -5.398438 2.617188 -5.46875 3.015625 -5.46875 C 3.410156 -5.46875 3.769531 -5.398438 4.09375 -5.265625 C 4.425781 -5.128906 4.707031 -4.9375 4.9375 -4.6875 C 5.175781 -4.445312 5.359375 -4.15625 5.484375 -3.8125 C 5.617188 -3.476562 5.6875 -3.109375 5.6875 -2.703125 Z M 4.9375 -2.703125 C 4.9375 -3.035156 4.890625 -3.332031 4.796875 -3.59375 C 4.703125 -3.863281 4.570312 -4.085938 4.40625 -4.265625 C 4.25 -4.453125 4.050781 -4.59375 3.8125 -4.6875 C 3.570312 -4.78125 3.304688 -4.828125 3.015625 -4.828125 C 2.722656 -4.828125 2.457031 -4.78125 2.21875 -4.6875 C 1.988281 -4.59375 1.789062 -4.453125 1.625 -4.265625 C 1.457031 -4.085938 1.328125 -3.863281 1.234375 -3.59375 C 1.148438 -3.332031 1.109375 -3.035156 1.109375 -2.703125 C 1.109375 -2.367188 1.148438 -2.070312 1.234375 -1.8125 C 1.328125 -1.550781 1.457031 -1.328125 1.625 -1.140625 C 1.789062 -0.960938 1.988281 -0.820312 2.21875 -0.71875 C 2.457031 -0.625 2.722656 -0.578125 3.015625 -0.578125 C 3.304688 -0.578125 3.570312 -0.625 3.8125 -0.71875 C 4.050781 -0.820312 4.25 -0.960938 4.40625 -1.140625 C 4.570312 -1.328125 4.703125 -1.550781 4.796875 -1.8125 C 4.890625 -2.070312 4.9375 -2.367188 4.9375 -2.703125 Z M 4.9375 -2.703125 "/></g></g></g><g fill="#010101" fill-opacity="1"><g transform="translate(22.934354, 8.613447)"><g><path d="M 2.78125 -0.578125 C 3 -0.578125 3.195312 -0.613281 3.375 -0.6875 C 3.550781 -0.769531 3.695312 -0.878906 3.8125 -1.015625 C 3.9375 -1.148438 4.03125 -1.3125 4.09375 -1.5 C 4.164062 -1.6875 4.203125 -1.894531 4.203125 -2.125 L 4.203125 -5.40625 L 4.921875 -5.40625 L 4.921875 -2.125 C 4.921875 -1.8125 4.867188 -1.519531 4.765625 -1.25 C 4.671875 -0.988281 4.53125 -0.757812 4.34375 -0.5625 C 4.164062 -0.363281 3.941406 -0.207031 3.671875 -0.09375 C 3.410156 0.0078125 3.113281 0.0625 2.78125 0.0625 C 2.445312 0.0625 2.144531 0.0078125 1.875 -0.09375 C 1.613281 -0.207031 1.390625 -0.363281 1.203125 -0.5625 C 1.015625 -0.757812 0.867188 -0.988281 0.765625 -1.25 C 0.671875 -1.519531 0.625 -1.8125 0.625 -2.125 L 0.625 -5.40625 L 1.34375 -5.40625 L 1.34375 -2.125 C 1.34375 -1.894531 1.375 -1.6875 1.4375 -1.5 C 1.507812 -1.3125 1.601562 -1.148438 1.71875 -1.015625 C 1.84375 -0.878906 1.992188 -0.769531 2.171875 -0.6875 C 2.347656 -0.613281 2.550781 -0.578125 2.78125 -0.578125 Z M 2.78125 -0.578125 "/></g></g></g><g fill="#010101" fill-opacity="1"><g transform="translate(34.524787, 8.613447)"><g><path d="M 2.1875 -2.78125 C 2.394531 -2.78125 2.582031 -2.804688 2.75 -2.859375 C 2.914062 -2.910156 3.050781 -2.984375 3.15625 -3.078125 C 3.269531 -3.171875 3.351562 -3.285156 3.40625 -3.421875 C 3.457031 -3.554688 3.484375 -3.703125 3.484375 -3.859375 C 3.484375 -4.179688 3.378906 -4.421875 3.171875 -4.578125 C 2.960938 -4.742188 2.644531 -4.828125 2.21875 -4.828125 L 1.421875 -4.828125 L 1.421875 -2.78125 Z M 4.6875 0 L 4.03125 0 C 3.90625 0 3.8125 -0.0507812 3.75 -0.15625 L 2.34375 -2.09375 C 2.300781 -2.144531 2.253906 -2.179688 2.203125 -2.203125 C 2.148438 -2.234375 2.070312 -2.25 1.96875 -2.25 L 1.421875 -2.25 L 1.421875 0 L 0.6875 0 L 0.6875 -5.40625 L 2.21875 -5.40625 C 2.5625 -5.40625 2.859375 -5.367188 3.109375 -5.296875 C 3.359375 -5.234375 3.5625 -5.132812 3.71875 -5 C 3.882812 -4.875 4.003906 -4.71875 4.078125 -4.53125 C 4.160156 -4.34375 4.203125 -4.132812 4.203125 -3.90625 C 4.203125 -3.71875 4.171875 -3.539062 4.109375 -3.375 C 4.046875 -3.207031 3.957031 -3.054688 3.84375 -2.921875 C 3.726562 -2.796875 3.585938 -2.6875 3.421875 -2.59375 C 3.265625 -2.5 3.082031 -2.425781 2.875 -2.375 C 2.957031 -2.320312 3.035156 -2.242188 3.109375 -2.140625 Z M 4.6875 0 "/></g></g></g><g fill="#010101" fill-opacity="1"><g transform="translate(45.292447, 8.613447)"><g><path d="M 3.453125 -4.5625 C 3.429688 -4.519531 3.40625 -4.488281 3.375 -4.46875 C 3.351562 -4.457031 3.320312 -4.453125 3.28125 -4.453125 C 3.238281 -4.453125 3.1875 -4.472656 3.125 -4.515625 C 3.070312 -4.554688 3 -4.601562 2.90625 -4.65625 C 2.820312 -4.707031 2.71875 -4.753906 2.59375 -4.796875 C 2.476562 -4.835938 2.332031 -4.859375 2.15625 -4.859375 C 2 -4.859375 1.859375 -4.835938 1.734375 -4.796875 C 1.609375 -4.753906 1.503906 -4.691406 1.421875 -4.609375 C 1.335938 -4.535156 1.269531 -4.445312 1.21875 -4.34375 C 1.175781 -4.25 1.15625 -4.140625 1.15625 -4.015625 C 1.15625 -3.867188 1.191406 -3.742188 1.265625 -3.640625 C 1.347656 -3.546875 1.445312 -3.460938 1.5625 -3.390625 C 1.6875 -3.316406 1.828125 -3.253906 1.984375 -3.203125 C 2.140625 -3.148438 2.296875 -3.097656 2.453125 -3.046875 C 2.617188 -2.992188 2.78125 -2.929688 2.9375 -2.859375 C 3.09375 -2.785156 3.226562 -2.695312 3.34375 -2.59375 C 3.46875 -2.488281 3.566406 -2.359375 3.640625 -2.203125 C 3.710938 -2.054688 3.75 -1.867188 3.75 -1.640625 C 3.75 -1.398438 3.707031 -1.175781 3.625 -0.96875 C 3.550781 -0.769531 3.4375 -0.59375 3.28125 -0.4375 C 3.125 -0.28125 2.929688 -0.15625 2.703125 -0.0625 C 2.484375 0.0195312 2.226562 0.0625 1.9375 0.0625 C 1.59375 0.0625 1.273438 0 0.984375 -0.125 C 0.703125 -0.257812 0.457031 -0.429688 0.25 -0.640625 L 0.453125 -1 C 0.472656 -1.019531 0.5 -1.039062 0.53125 -1.0625 C 0.5625 -1.082031 0.59375 -1.09375 0.625 -1.09375 C 0.65625 -1.09375 0.691406 -1.078125 0.734375 -1.046875 C 0.773438 -1.023438 0.820312 -0.992188 0.875 -0.953125 C 0.9375 -0.910156 1 -0.863281 1.0625 -0.8125 C 1.132812 -0.769531 1.210938 -0.726562 1.296875 -0.6875 C 1.378906 -0.644531 1.476562 -0.609375 1.59375 -0.578125 C 1.707031 -0.554688 1.832031 -0.546875 1.96875 -0.546875 C 2.132812 -0.546875 2.285156 -0.566406 2.421875 -0.609375 C 2.566406 -0.660156 2.6875 -0.726562 2.78125 -0.8125 C 2.875 -0.90625 2.941406 -1.007812 2.984375 -1.125 C 3.035156 -1.25 3.0625 -1.382812 3.0625 -1.53125 C 3.0625 -1.695312 3.023438 -1.832031 2.953125 -1.9375 C 2.878906 -2.039062 2.78125 -2.128906 2.65625 -2.203125 C 2.539062 -2.273438 2.40625 -2.332031 2.25 -2.375 C 2.09375 -2.425781 1.929688 -2.476562 1.765625 -2.53125 C 1.609375 -2.582031 1.453125 -2.640625 1.296875 -2.703125 C 1.140625 -2.773438 1 -2.863281 0.875 -2.96875 C 0.757812 -3.082031 0.664062 -3.21875 0.59375 -3.375 C 0.519531 -3.539062 0.484375 -3.742188 0.484375 -3.984375 C 0.484375 -4.171875 0.519531 -4.351562 0.59375 -4.53125 C 0.664062 -4.707031 0.769531 -4.863281 0.90625 -5 C 1.050781 -5.144531 1.226562 -5.257812 1.4375 -5.34375 C 1.644531 -5.425781 1.882812 -5.46875 2.15625 -5.46875 C 2.457031 -5.46875 2.726562 -5.421875 2.96875 -5.328125 C 3.21875 -5.234375 3.441406 -5.09375 3.640625 -4.90625 Z M 3.453125 -4.5625 "/></g></g></g><g fill="#010101" fill-opacity="1"><g transform="translate(55.426045, 8.613447)"><g/></g></g><g fill="#010101" fill-opacity="1"><g transform="translate(63.397046, 8.613447)"><g><path d="M 1.828125 -2.65625 C 1.554688 -2.519531 1.351562 -2.347656 1.21875 -2.140625 C 1.082031 -1.941406 1.015625 -1.726562 1.015625 -1.5 C 1.015625 -1.332031 1.046875 -1.1875 1.109375 -1.0625 C 1.171875 -0.9375 1.25 -0.832031 1.34375 -0.75 C 1.445312 -0.664062 1.5625 -0.597656 1.6875 -0.546875 C 1.8125 -0.503906 1.9375 -0.484375 2.0625 -0.484375 C 2.34375 -0.484375 2.597656 -0.535156 2.828125 -0.640625 C 3.054688 -0.742188 3.253906 -0.882812 3.421875 -1.0625 Z M 5.3125 0 L 4.65625 0 C 4.582031 0 4.519531 -0.00390625 4.46875 -0.015625 C 4.425781 -0.0351562 4.378906 -0.078125 4.328125 -0.140625 L 3.78125 -0.6875 C 3.550781 -0.457031 3.28125 -0.273438 2.96875 -0.140625 C 2.65625 -0.00390625 2.316406 0.0625 1.953125 0.0625 C 1.753906 0.0625 1.554688 0.03125 1.359375 -0.03125 C 1.171875 -0.101562 1 -0.203125 0.84375 -0.328125 C 0.6875 -0.460938 0.5625 -0.625 0.46875 -0.8125 C 0.375 -1 0.328125 -1.207031 0.328125 -1.4375 C 0.328125 -1.613281 0.359375 -1.78125 0.421875 -1.9375 C 0.484375 -2.09375 0.566406 -2.238281 0.671875 -2.375 C 0.773438 -2.507812 0.894531 -2.628906 1.03125 -2.734375 C 1.175781 -2.835938 1.335938 -2.925781 1.515625 -3 C 1.359375 -3.195312 1.242188 -3.382812 1.171875 -3.5625 C 1.097656 -3.75 1.0625 -3.941406 1.0625 -4.140625 C 1.0625 -4.328125 1.09375 -4.5 1.15625 -4.65625 C 1.226562 -4.820312 1.328125 -4.960938 1.453125 -5.078125 C 1.578125 -5.203125 1.726562 -5.296875 1.90625 -5.359375 C 2.09375 -5.429688 2.296875 -5.46875 2.515625 -5.46875 C 2.710938 -5.46875 2.894531 -5.4375 3.0625 -5.375 C 3.226562 -5.3125 3.367188 -5.222656 3.484375 -5.109375 C 3.597656 -5.003906 3.691406 -4.882812 3.765625 -4.75 C 3.835938 -4.613281 3.878906 -4.46875 3.890625 -4.3125 L 3.46875 -4.234375 C 3.382812 -4.210938 3.320312 -4.25 3.28125 -4.34375 C 3.257812 -4.40625 3.226562 -4.472656 3.1875 -4.546875 C 3.15625 -4.617188 3.109375 -4.679688 3.046875 -4.734375 C 2.984375 -4.796875 2.90625 -4.84375 2.8125 -4.875 C 2.726562 -4.914062 2.628906 -4.9375 2.515625 -4.9375 C 2.390625 -4.9375 2.273438 -4.914062 2.171875 -4.875 C 2.066406 -4.84375 1.976562 -4.789062 1.90625 -4.71875 C 1.84375 -4.644531 1.789062 -4.554688 1.75 -4.453125 C 1.707031 -4.359375 1.6875 -4.253906 1.6875 -4.140625 C 1.6875 -4.054688 1.695312 -3.972656 1.71875 -3.890625 C 1.738281 -3.816406 1.769531 -3.738281 1.8125 -3.65625 C 1.863281 -3.570312 1.921875 -3.484375 1.984375 -3.390625 C 2.054688 -3.304688 2.140625 -3.21875 2.234375 -3.125 L 3.78125 -1.546875 C 3.882812 -1.710938 3.960938 -1.890625 4.015625 -2.078125 C 4.078125 -2.265625 4.113281 -2.445312 4.125 -2.625 C 4.132812 -2.675781 4.148438 -2.710938 4.171875 -2.734375 C 4.203125 -2.765625 4.238281 -2.78125 4.28125 -2.78125 L 4.6875 -2.78125 C 4.6875 -2.488281 4.640625 -2.203125 4.546875 -1.921875 C 4.460938 -1.648438 4.335938 -1.394531 4.171875 -1.15625 Z M 5.3125 0 "/></g></g></g><g fill="#010101" fill-opacity="1"><g transform="translate(74.810095, 8.613447)"><g/></g></g><g fill="#010101" fill-opacity="1"><g transform="translate(82.781096, 8.613447)"><g><path d="M 4.34375 -4.796875 L 2.59375 -4.796875 L 2.59375 0 L 1.875 0 L 1.875 -4.796875 L 0.109375 -4.796875 L 0.109375 -5.40625 L 4.34375 -5.40625 Z M 4.34375 -4.796875 "/></g></g></g><g fill="#010101" fill-opacity="1"><g transform="translate(93.277013, 8.613447)"><g><path d="M 2.1875 -2.78125 C 2.394531 -2.78125 2.582031 -2.804688 2.75 -2.859375 C 2.914062 -2.910156 3.050781 -2.984375 3.15625 -3.078125 C 3.269531 -3.171875 3.351562 -3.285156 3.40625 -3.421875 C 3.457031 -3.554688 3.484375 -3.703125 3.484375 -3.859375 C 3.484375 -4.179688 3.378906 -4.421875 3.171875 -4.578125 C 2.960938 -4.742188 2.644531 -4.828125 2.21875 -4.828125 L 1.421875 -4.828125 L 1.421875 -2.78125 Z M 4.6875 0 L 4.03125 0 C 3.90625 0 3.8125 -0.0507812 3.75 -0.15625 L 2.34375 -2.09375 C 2.300781 -2.144531 2.253906 -2.179688 2.203125 -2.203125 C 2.148438 -2.234375 2.070312 -2.25 1.96875 -2.25 L 1.421875 -2.25 L 1.421875 0 L 0.6875 0 L 0.6875 -5.40625 L 2.21875 -5.40625 C 2.5625 -5.40625 2.859375 -5.367188 3.109375 -5.296875 C 3.359375 -5.234375 3.5625 -5.132812 3.71875 -5 C 3.882812 -4.875 4.003906 -4.71875 4.078125 -4.53125 C 4.160156 -4.34375 4.203125 -4.132812 4.203125 -3.90625 C 4.203125 -3.71875 4.171875 -3.539062 4.109375 -3.375 C 4.046875 -3.207031 3.957031 -3.054688 3.84375 -2.921875 C 3.726562 -2.796875 3.585938 -2.6875 3.421875 -2.59375 C 3.265625 -2.5 3.082031 -2.425781 2.875 -2.375 C 2.957031 -2.320312 3.035156 -2.242188 3.109375 -2.140625 Z M 4.6875 0 "/></g></g></g><g fill="#010101" fill-opacity="1"><g transform="translate(104.044674, 8.613447)"><g><path d="M 3.5625 -2 L 2.71875 -4.203125 C 2.6875 -4.273438 2.65625 -4.351562 2.625 -4.4375 C 2.601562 -4.519531 2.578125 -4.613281 2.546875 -4.71875 C 2.492188 -4.507812 2.441406 -4.335938 2.390625 -4.203125 L 1.546875 -2 Z M 5.09375 0 L 4.515625 0 C 4.453125 0 4.398438 -0.015625 4.359375 -0.046875 C 4.316406 -0.078125 4.285156 -0.117188 4.265625 -0.171875 L 3.765625 -1.484375 L 1.34375 -1.484375 L 0.828125 -0.171875 C 0.816406 -0.128906 0.789062 -0.0859375 0.75 -0.046875 C 0.707031 -0.015625 0.65625 0 0.59375 0 L 0.015625 0 L 2.1875 -5.40625 L 2.921875 -5.40625 Z M 5.09375 0 "/></g></g></g><g fill="#010101" fill-opacity="1"><g transform="translate(115.193525, 8.613447)"><g><path d="M 5.09375 -5.40625 L 2.890625 0 L 2.21875 0 L 0.015625 -5.40625 L 0.609375 -5.40625 C 0.671875 -5.40625 0.722656 -5.390625 0.765625 -5.359375 C 0.804688 -5.328125 0.835938 -5.285156 0.859375 -5.234375 L 2.375 -1.421875 C 2.414062 -1.335938 2.453125 -1.242188 2.484375 -1.140625 C 2.515625 -1.035156 2.539062 -0.929688 2.5625 -0.828125 C 2.582031 -0.929688 2.609375 -1.035156 2.640625 -1.140625 C 2.671875 -1.242188 2.703125 -1.335938 2.734375 -1.421875 L 4.25 -5.234375 C 4.269531 -5.273438 4.300781 -5.3125 4.34375 -5.34375 C 4.382812 -5.382812 4.4375 -5.40625 4.5 -5.40625 Z M 5.09375 -5.40625 "/></g></g></g><g fill="#010101" fill-opacity="1"><g transform="translate(126.342376, 8.613447)"><g><path d="M 4.03125 -0.59375 L 4.015625 0 L 0.6875 0 L 0.6875 -5.40625 L 4.015625 -5.40625 L 4.015625 -4.8125 L 1.421875 -4.8125 L 1.421875 -3.015625 L 3.53125 -3.015625 L 3.53125 -2.4375 L 1.421875 -2.4375 L 1.421875 -0.59375 Z M 4.03125 -0.59375 "/></g></g></g><g fill="#010101" fill-opacity="1"><g transform="translate(136.740172, 8.613447)"><g><path d="M 3.765625 -0.609375 L 3.765625 0 L 0.6875 0 L 0.6875 -5.40625 L 1.421875 -5.40625 L 1.421875 -0.609375 Z M 3.765625 -0.609375 "/></g></g></g></g></g></svg>