<svg xmlns="http://www.w3.org/2000/svg" xmlns:xlink="http://www.w3.org/1999/xlink" width="500" zoomAndPan="magnify" viewBox="0 0 375 374.999991" height="500" preserveAspectRatio="xMidYMid meet" version="1.0"><defs><g/></defs><rect x="-37.5" width="450" fill="#ffffff" y="-37.499999" height="449.999989" fill-opacity="1"/><rect x="-37.5" width="450" fill="#ffffff" y="-37.499999" height="449.999989" fill-opacity="1"/><g fill="#000000" fill-opacity="1"><g transform="translate(56.860747, 232.98741)"><g><path d="M 8.90625 0 L 8.90625 -127.328125 C 9.59375 -127.753906 10.507812 -128.070312 11.65625 -128.28125 C 12.800781 -128.488281 13.796875 -128.59375 14.640625 -128.59375 C 18.460938 -128.59375 21.753906 -127.765625 24.515625 -126.109375 C 27.273438 -124.460938 29.820312 -121.941406 32.15625 -118.546875 C 34.488281 -115.148438 36.945312 -110.863281 39.53125 -105.6875 C 42.125 -100.507812 45.097656 -94.414062 48.453125 -87.40625 C 51.804688 -80.40625 55.859375 -72.492188 60.609375 -63.671875 C 66.972656 -51.867188 72.316406 -42.675781 76.640625 -36.09375 C 80.972656 -29.519531 84.5 -24.742188 87.21875 -21.765625 C 89.507812 -19.304688 91.3125 -17.78125 92.625 -17.1875 C 93.945312 -16.59375 94.90625 -16.421875 95.5 -16.671875 C 96.09375 -16.929688 96.390625 -17.0625 96.390625 -17.0625 C 96.390625 -32.9375 95.5 -47.390625 93.71875 -60.421875 C 91.9375 -73.453125 89.257812 -85.441406 85.6875 -96.390625 C 82.125 -107.335938 77.625 -117.648438 72.1875 -127.328125 L 98.671875 -127.328125 L 98.671875 0 C 97.992188 0.34375 97.101562 0.640625 96 0.890625 C 94.894531 1.140625 93.878906 1.265625 92.953125 1.265625 C 89.046875 1.265625 85.078125 -0.21875 81.046875 -3.1875 C 77.015625 -6.15625 72.9375 -10.226562 68.8125 -15.40625 C 64.695312 -20.582031 60.625 -26.503906 56.59375 -33.171875 C 52.5625 -39.835938 48.59375 -46.90625 44.6875 -54.375 C 38.582031 -66 33.660156 -75.609375 29.921875 -83.203125 C 26.179688 -90.804688 23.378906 -96.390625 21.515625 -99.953125 C 19.734375 -103.347656 18.179688 -105.875 16.859375 -107.53125 C 15.546875 -109.1875 14.488281 -110.269531 13.6875 -110.78125 C 12.882812 -111.289062 12.269531 -111.5 11.84375 -111.40625 C 11.414062 -111.320312 11.203125 -111.28125 11.203125 -111.28125 C 11.203125 -95.070312 12.09375 -80.390625 13.875 -67.234375 C 15.65625 -54.078125 18.347656 -42 21.953125 -31 C 25.566406 -20.007812 30.046875 -9.675781 35.390625 0 Z M 8.90625 0 "/></g></g></g><g fill="#000000" fill-opacity="1"><g transform="translate(164.44976, 232.98741)"><g><path d="M 30.296875 0 L 2.546875 0 C 5.179688 -8.65625 7.644531 -16.738281 9.9375 -24.25 C 12.226562 -31.769531 14.410156 -38.96875 16.484375 -45.84375 C 18.566406 -52.71875 20.644531 -59.59375 22.71875 -66.46875 C 24.800781 -73.34375 26.96875 -80.453125 29.21875 -87.796875 C 31.46875 -95.140625 33.867188 -103.054688 36.421875 -111.546875 C 37.347656 -114.515625 38.53125 -117.289062 39.96875 -119.875 C 41.414062 -122.46875 43.265625 -124.566406 45.515625 -126.171875 C 47.765625 -127.785156 50.421875 -128.59375 53.484375 -128.59375 C 56.617188 -128.59375 59.289062 -127.785156 61.5 -126.171875 C 63.707031 -124.566406 65.550781 -122.46875 67.03125 -119.875 C 68.519531 -117.289062 69.691406 -114.515625 70.546875 -111.546875 C 73.085938 -103.054688 75.484375 -95.140625 77.734375 -87.796875 C 79.984375 -80.453125 82.144531 -73.34375 84.21875 -66.46875 C 86.300781 -59.59375 88.40625 -52.71875 90.53125 -45.84375 C 92.65625 -38.96875 94.84375 -31.769531 97.09375 -24.25 C 99.34375 -16.738281 101.78125 -8.65625 104.40625 0 L 84.921875 0 C 82.296875 -8.820312 79.859375 -16.988281 77.609375 -24.5 C 75.359375 -32.019531 73.210938 -39.257812 71.171875 -46.21875 L 28.65625 -46.21875 C 28.476562 -39.175781 28.429688 -32.515625 28.515625 -26.234375 C 28.609375 -19.953125 28.820312 -14.492188 29.15625 -9.859375 C 29.5 -5.234375 29.878906 -1.945312 30.296875 0 Z M 28.78125 -48.125 L 70.546875 -48.125 C 68.585938 -54.832031 66.585938 -61.472656 64.546875 -68.046875 C 62.515625 -74.628906 60.414062 -81.484375 58.25 -88.609375 C 56.082031 -95.742188 53.6875 -103.390625 51.0625 -111.546875 C 50.632812 -112.984375 50.035156 -114.125 49.265625 -114.96875 C 48.503906 -115.820312 47.40625 -116.25 45.96875 -116.25 C 43.675781 -116.25 41.640625 -114.929688 39.859375 -112.296875 C 38.078125 -109.671875 36.546875 -106.085938 35.265625 -101.546875 C 33.992188 -97.003906 32.910156 -91.820312 32.015625 -86 C 31.128906 -80.1875 30.429688 -74.035156 29.921875 -67.546875 C 29.410156 -61.054688 29.03125 -54.582031 28.78125 -48.125 Z M 28.78125 -48.125 "/></g></g></g><g fill="#000000" fill-opacity="1"><g transform="translate(271.40216, 232.98741)"><g><path d="M 2.546875 -5.21875 C 4.328125 -4.375 6.238281 -3.953125 8.28125 -3.953125 C 11.757812 -3.953125 14.707031 -5.222656 17.125 -7.765625 C 19.539062 -10.316406 20.75 -13.585938 20.75 -17.578125 L 20.75 -127.328125 L 39.09375 -127.328125 L 39.09375 -25.078125 C 39.09375 -7.421875 31.625 1.40625 16.6875 1.40625 C 8.875 1.40625 4.160156 -0.800781 2.546875 -5.21875 Z M 2.546875 -5.21875 "/></g></g></g><g fill="#000000" fill-opacity="1"><g transform="translate(54.572154, 279.658604)"><g><path d="M 7.640625 -0.03125 L 5.71875 -0.03125 L 2.734375 -14.296875 L 2.734375 0 L 1 0 L 1 -17.9375 L 3.796875 -17.9375 L 6.734375 -3.609375 L 9.578125 -17.9375 L 12.375 -17.9375 L 12.375 0 L 10.484375 0 L 10.484375 -14.421875 Z M 7.640625 -0.03125 "/></g></g></g><g fill="#000000" fill-opacity="1"><g transform="translate(80.113912, 279.658604)"><g><path d="M 3.046875 -3.609375 L 2.359375 0 L 0.515625 0 L 3.953125 -17.9375 L 6.84375 -17.9375 L 10.28125 0 L 8.28125 0 L 7.578125 -3.609375 Z M 3.3125 -5.328125 L 7.296875 -5.328125 L 5.28125 -15.6875 Z M 3.3125 -5.328125 "/></g></g></g><g fill="#000000" fill-opacity="1"><g transform="translate(103.068332, 279.658604)"><g><path d="M 4.078125 -7.796875 L 3.03125 -6.015625 L 3.03125 0 L 1.03125 0 L 1.03125 -17.9375 L 3.03125 -17.9375 L 3.03125 -9.28125 L 7.796875 -17.9375 L 9.8125 -17.9375 L 5.28125 -9.765625 L 9.96875 0 L 7.921875 0 Z M 4.078125 -7.796875 "/></g></g></g><g fill="#000000" fill-opacity="1"><g transform="translate(125.689729, 279.658604)"><g><path d="M 7.40625 -10 L 7.40625 -8.203125 L 3.03125 -8.203125 L 3.03125 -1.8125 L 8.40625 -1.8125 L 8.40625 0 L 1.03125 0 L 1.03125 -17.9375 L 8.40625 -17.9375 L 8.40625 -16.125 L 3.03125 -16.125 L 3.03125 -10 Z M 7.40625 -10 "/></g></g></g><g fill="#000000" fill-opacity="1"><g transform="translate(147.055882, 279.658604)"><g><path d="M 2.921875 -4.234375 C 2.921875 -3.410156 3.085938 -2.769531 3.421875 -2.3125 C 3.753906 -1.863281 4.285156 -1.640625 5.015625 -1.640625 C 5.734375 -1.640625 6.257812 -1.863281 6.59375 -2.3125 C 6.925781 -2.769531 7.09375 -3.410156 7.09375 -4.234375 L 7.09375 -17.9375 L 8.96875 -17.9375 L 8.96875 -4.328125 C 8.96875 -2.960938 8.640625 -1.863281 7.984375 -1.03125 C 7.335938 -0.207031 6.328125 0.203125 4.953125 0.203125 C 3.578125 0.203125 2.566406 -0.207031 1.921875 -1.03125 C 1.273438 -1.863281 0.953125 -2.960938 0.953125 -4.328125 L 0.953125 -17.9375 L 2.921875 -17.9375 Z M 2.921875 -4.234375 "/></g></g></g><g fill="#000000" fill-opacity="1"><g transform="translate(169.113692, 279.658604)"><g><path d="M 4.953125 -17.9375 C 6.367188 -17.9375 7.390625 -17.546875 8.015625 -16.765625 C 8.648438 -15.992188 8.96875 -14.925781 8.96875 -13.5625 L 8.96875 -11.40625 C 8.96875 -9.96875 8.628906 -8.882812 7.953125 -8.15625 C 7.273438 -7.4375 6.222656 -7.078125 4.796875 -7.078125 L 3.03125 -7.078125 L 3.03125 0 L 1.03125 0 L 1.03125 -17.9375 Z M 4.796875 -8.859375 C 5.546875 -8.859375 6.097656 -9.039062 6.453125 -9.40625 C 6.816406 -9.78125 7 -10.40625 7 -11.28125 L 7 -13.65625 C 7 -14.476562 6.835938 -15.09375 6.515625 -15.5 C 6.203125 -15.914062 5.679688 -16.125 4.953125 -16.125 L 3.03125 -16.125 L 3.03125 -8.859375 Z M 4.796875 -8.859375 "/></g></g></g><g fill="#000000" fill-opacity="1"><g transform="translate(190.761632, 279.658604)"><g/></g></g><g fill="#000000" fill-opacity="1"><g transform="translate(206.876251, 279.658604)"><g><path d="M 4.796875 -18.109375 C 6.160156 -18.109375 7.164062 -17.703125 7.8125 -16.890625 C 8.46875 -16.085938 8.796875 -15 8.796875 -13.625 L 8.796875 -13.140625 L 6.890625 -13.140625 L 6.890625 -13.734375 C 6.890625 -14.554688 6.726562 -15.1875 6.40625 -15.625 C 6.082031 -16.070312 5.5625 -16.296875 4.84375 -16.296875 C 4.125 -16.296875 3.601562 -16.070312 3.28125 -15.625 C 2.957031 -15.1875 2.796875 -14.566406 2.796875 -13.765625 C 2.796875 -13.097656 2.941406 -12.515625 3.234375 -12.015625 C 3.535156 -11.523438 3.90625 -11.066406 4.34375 -10.640625 C 4.789062 -10.222656 5.273438 -9.8125 5.796875 -9.40625 C 6.316406 -9.007812 6.800781 -8.570312 7.25 -8.09375 C 7.695312 -7.613281 8.066406 -7.070312 8.359375 -6.46875 C 8.660156 -5.863281 8.8125 -5.144531 8.8125 -4.3125 C 8.8125 -2.9375 8.484375 -1.84375 7.828125 -1.03125 C 7.171875 -0.226562 6.148438 0.171875 4.765625 0.171875 C 3.378906 0.171875 2.363281 -0.226562 1.71875 -1.03125 C 1.070312 -1.84375 0.75 -2.9375 0.75 -4.3125 L 0.75 -5.328125 L 2.609375 -5.328125 L 2.609375 -4.203125 C 2.609375 -3.378906 2.78125 -2.742188 3.125 -2.296875 C 3.46875 -1.859375 4 -1.640625 4.71875 -1.640625 C 5.4375 -1.640625 5.960938 -1.859375 6.296875 -2.296875 C 6.640625 -2.742188 6.8125 -3.378906 6.8125 -4.203125 C 6.8125 -4.867188 6.660156 -5.441406 6.359375 -5.921875 C 6.066406 -6.410156 5.695312 -6.863281 5.25 -7.28125 C 4.8125 -7.707031 4.332031 -8.117188 3.8125 -8.515625 C 3.300781 -8.921875 2.820312 -9.363281 2.375 -9.84375 C 1.9375 -10.320312 1.566406 -10.863281 1.265625 -11.46875 C 0.960938 -12.070312 0.8125 -12.789062 0.8125 -13.625 C 0.8125 -15.007812 1.132812 -16.101562 1.78125 -16.90625 C 2.4375 -17.707031 3.441406 -18.109375 4.796875 -18.109375 Z M 4.796875 -18.109375 "/></g></g></g><g fill="#000000" fill-opacity="1"><g transform="translate(228.549803, 279.658604)"><g><path d="M 3.609375 0 L 3.609375 -16.125 L 0.3125 -16.125 L 0.3125 -17.9375 L 8.890625 -17.9375 L 8.890625 -16.125 L 5.59375 -16.125 L 5.59375 0 Z M 3.609375 0 "/></g></g></g><g fill="#000000" fill-opacity="1"><g transform="translate(249.915967, 279.658604)"><g><path d="M 2.921875 -4.234375 C 2.921875 -3.410156 3.085938 -2.769531 3.421875 -2.3125 C 3.753906 -1.863281 4.285156 -1.640625 5.015625 -1.640625 C 5.734375 -1.640625 6.257812 -1.863281 6.59375 -2.3125 C 6.925781 -2.769531 7.09375 -3.410156 7.09375 -4.234375 L 7.09375 -17.9375 L 8.96875 -17.9375 L 8.96875 -4.328125 C 8.96875 -2.960938 8.640625 -1.863281 7.984375 -1.03125 C 7.335938 -0.207031 6.328125 0.203125 4.953125 0.203125 C 3.578125 0.203125 2.566406 -0.207031 1.921875 -1.03125 C 1.273438 -1.863281 0.953125 -2.960938 0.953125 -4.328125 L 0.953125 -17.9375 L 2.921875 -17.9375 Z M 2.921875 -4.234375 "/></g></g></g><g fill="#000000" fill-opacity="1"><g transform="translate(271.973765, 279.658604)"><g><path d="M 5.234375 -17.9375 C 6.628906 -17.9375 7.65625 -17.535156 8.3125 -16.734375 C 8.96875 -15.941406 9.296875 -14.859375 9.296875 -13.484375 L 9.296875 -4.4375 C 9.296875 -3.050781 8.96875 -1.960938 8.3125 -1.171875 C 7.65625 -0.390625 6.628906 0 5.234375 0 L 1.03125 0 L 1.03125 -17.9375 Z M 5.203125 -1.8125 C 5.921875 -1.8125 6.453125 -2.03125 6.796875 -2.46875 C 7.148438 -2.90625 7.328125 -3.535156 7.328125 -4.359375 L 7.328125 -13.578125 C 7.328125 -14.398438 7.148438 -15.03125 6.796875 -15.46875 C 6.453125 -15.90625 5.910156 -16.125 5.171875 -16.125 L 3.03125 -16.125 L 3.03125 -1.8125 Z M 5.203125 -1.8125 "/></g></g></g><g fill="#000000" fill-opacity="1"><g transform="translate(294.262139, 279.658604)"><g><path d="M 3.03125 -17.9375 L 3.03125 0 L 1.03125 0 L 1.03125 -17.9375 Z M 3.03125 -17.9375 "/></g></g></g><g fill="#000000" fill-opacity="1"><g transform="translate(310.453606, 279.658604)"><g><path d="M 0.875 -13.609375 C 0.875 -14.992188 1.207031 -16.085938 1.875 -16.890625 C 2.550781 -17.703125 3.582031 -18.109375 4.96875 -18.109375 C 6.351562 -18.109375 7.382812 -17.703125 8.0625 -16.890625 C 8.75 -16.085938 9.09375 -14.992188 9.09375 -13.609375 L 9.09375 -4.328125 C 9.09375 -2.960938 8.75 -1.867188 8.0625 -1.046875 C 7.382812 -0.234375 6.351562 0.171875 4.96875 0.171875 C 3.582031 0.171875 2.550781 -0.234375 1.875 -1.046875 C 1.207031 -1.867188 0.875 -2.960938 0.875 -4.328125 Z M 2.84375 -4.234375 C 2.84375 -3.410156 3.015625 -2.769531 3.359375 -2.3125 C 3.710938 -1.863281 4.25 -1.640625 4.96875 -1.640625 C 5.707031 -1.640625 6.242188 -1.863281 6.578125 -2.3125 C 6.921875 -2.769531 7.09375 -3.410156 7.09375 -4.234375 L 7.09375 -13.703125 C 7.09375 -14.523438 6.921875 -15.160156 6.578125 -15.609375 C 6.242188 -16.066406 5.707031 -16.296875 4.96875 -16.296875 C 4.25 -16.296875 3.710938 -16.066406 3.359375 -15.609375 C 3.015625 -15.160156 2.84375 -14.523438 2.84375 -13.703125 Z M 2.84375 -4.234375 "/></g></g></g></svg>